<?xml version="1.0" encoding="utf-8"?>
<!-- Generator: Adobe Illustrator 17.0.0, SVG Export Plug-In . SVG Version: 6.00 Build 0)  -->
<!DOCTYPE svg PUBLIC "-//W3C//DTD SVG 1.1//EN" "http://www.w3.org/Graphics/SVG/1.1/DTD/svg11.dtd">
<svg version="1.1" id="Layer_1" xmlns="http://www.w3.org/2000/svg" xmlns:xlink="http://www.w3.org/1999/xlink" x="0px" y="0px"
	 width="464.49px" height="72.758px" viewBox="184.129 642.639 464.49 72.758"
	 enable-background="new 184.129 642.639 464.49 72.758" xml:space="preserve">
<path fill="#FFFFFF" d="M224.864,712.531c-18.509,2.424-35.478-10.616-37.9-29.125c-2.424-18.509,10.616-35.478,29.125-37.9
	c18.508-2.423,35.477,10.616,37.9,29.125C256.412,693.139,243.373,710.108,224.864,712.531"/>
<path fill="#006F37" d="M240.852,679.018c0.013,10.087-7.463,18.857-17.731,20.202c-11.157,1.46-21.386-6.4-22.847-17.557
	c-0.116-0.889-0.173-1.772-0.174-2.645h-11.343c0,17.518,14.201,31.719,31.719,31.719s31.719-14.201,31.719-31.719H240.852z
	 M248.196,685.795c0,0-0.255,1.632-1.545,2.371c-0.689,0.395-1.225,0.225-1.481,0.106c0,0,0.546-0.349,1.092-0.734
	c0.268-0.199,0.536-0.399,0.737-0.548c0.195-0.129,0.194-0.164-0.019-0.042c-0.213,0.128-0.495,0.294-0.775,0.454
	c-0.276,0.161-0.571,0.308-0.784,0.42c-0.215,0.107-0.358,0.179-0.358,0.179c0.031-0.168,0.555-1.106,1.097-1.534
	C247.115,685.713,248.196,685.795,248.196,685.795 M244.981,684.499c0.066-0.535,0.31-1.089,0.531-1.521
	c0.22-0.43,0.421-0.735,0.421-0.735s0.172,0.322,0.323,0.793s0.276,1.09,0.208,1.646c-0.102,0.813-0.576,1.252-0.82,1.425
	c0,0,0.076-0.683,0.127-1.365c0.054-0.684,0.081-1.367,0.081-1.367s-0.093,0.677-0.214,1.349c-0.117,0.673-0.258,1.34-0.258,1.34
	C245.2,685.823,244.885,685.282,244.981,684.499 M244.603,686.022c0.552,0.785,0.278,1.745,0.214,1.892c0,0-0.067-0.143-0.17-0.358
	c-0.104-0.214-0.235-0.491-0.388-0.77c-0.149-0.276-0.3-0.546-0.414-0.746c-0.113-0.206-0.123-0.214-0.038,0.023
	c0.091,0.213,0.212,0.5,0.331,0.795c0.226,0.583,0.43,1.195,0.43,1.195c-0.272-0.07-0.811-0.309-1.106-0.971
	c-0.099-0.225-0.163-0.479-0.214-0.735c-0.024-0.127-0.041-0.254-0.054-0.377c-0.006-0.061-0.167-0.913-0.167-0.913
	S244.125,685.332,244.603,686.022 M242.387,687.926c0.009-0.225,0.033-0.42,0.048-0.56c0.013-0.142,0.026-0.227,0.026-0.227
	s0.287,0.169,0.621,0.459c0.332,0.288,0.7,0.697,0.876,1.179c0.133,0.352,0.122,0.683,0.07,0.964
	c-0.054,0.281-0.151,0.509-0.236,0.646c0,0-0.047-0.149-0.13-0.373c-0.083-0.225-0.195-0.52-0.311-0.809
	c-0.113-0.288-0.234-0.571-0.333-0.784c-0.095-0.21-0.16-0.35-0.16-0.35s0.049,0.147,0.121,0.369
	c0.076,0.223,0.16,0.519,0.243,0.823c0.081,0.302,0.167,0.614,0.218,0.846c0.052,0.233,0.086,0.388,0.086,0.388
	c-0.267-0.099-0.77-0.389-0.995-1.079C242.369,688.942,242.375,688.38,242.387,687.926 M241.375,690.146
	c0.062-0.449,0.153-0.777,0.153-0.777s0.266,0.198,0.566,0.519c0.294,0.319,0.64,0.775,0.751,1.266
	c0.084,0.359,0.055,0.696-0.028,0.968c-0.087,0.271-0.214,0.485-0.306,0.616l-0.093-0.386c-0.059-0.232-0.129-0.53-0.219-0.833
	c-0.177-0.605-0.369-1.179-0.369-1.179s0.126,0.596,0.237,1.224c0.096,0.615,0.172,1.259,0.172,1.259
	c-0.253-0.125-0.73-0.471-0.882-1.181C241.261,691.16,241.299,690.587,241.375,690.146 M240.13,692.245
	c0.056-0.219,0.117-0.406,0.164-0.539c0.046-0.134,0.073-0.215,0.073-0.215s0.246,0.225,0.512,0.577
	c0.261,0.349,0.54,0.828,0.612,1.336c0.057,0.373-0.026,0.691-0.132,0.958c-0.106,0.266-0.257,0.464-0.366,0.582
	c0,0-0.02-0.157-0.048-0.391c-0.033-0.235-0.085-0.549-0.138-0.855c-0.1-0.612-0.247-1.213-0.247-1.213s0.078,0.616,0.11,1.242
	c0.046,0.633,0.041,1.27,0.041,1.27c-0.24-0.151-0.677-0.543-0.748-1.26C239.898,693.235,240.026,692.689,240.13,692.245
	 M238.457,694.912c0.058-0.252,0.138-0.495,0.221-0.704c0.084-0.207,0.154-0.396,0.213-0.523c0.058-0.129,0.098-0.205,0.098-0.205
	s0.22,0.248,0.446,0.626c0.228,0.376,0.463,0.887,0.474,1.392c0.027,0.75-0.421,1.265-0.652,1.484c0,0-0.016-0.642-0.054-1.257
	c-0.05-0.63-0.121-1.233-0.121-1.233s0,0.154-0.001,0.384c-0.003,0.232-0.003,0.55-0.02,0.863c-0.019,0.315-0.04,0.631-0.055,0.868
	c-0.017,0.241-0.035,0.4-0.035,0.4c-0.222-0.176-0.614-0.606-0.62-1.337C238.348,695.419,238.397,695.165,238.457,694.912
	 M236.555,697.432c0.027-0.244,0.089-0.506,0.178-0.747c0.087-0.242,0.198-0.469,0.294-0.676c0.1-0.204,0.196-0.376,0.27-0.497
	c0.074-0.12,0.119-0.192,0.119-0.192s0.194,0.271,0.378,0.667c0.185,0.396,0.36,0.923,0.328,1.436
	c-0.061,0.737-0.544,1.22-0.807,1.403c0,0,0.062-0.627,0.075-1.257c0.01-0.314,0.016-0.62,0.017-0.85
	c-0.005-0.232-0.008-0.388-0.008-0.388s-0.013,0.156-0.036,0.389c-0.03,0.231-0.071,0.54-0.113,0.85
	c-0.042,0.315-0.098,0.626-0.144,0.859c-0.047,0.235-0.077,0.393-0.077,0.393C236.827,698.624,236.477,698.15,236.555,697.432
	 M234.583,698.994c0.049-0.244,0.143-0.489,0.258-0.718c0.11-0.235,0.237-0.457,0.359-0.647c0.124-0.186,0.238-0.348,0.318-0.466
	c0.083-0.115,0.137-0.181,0.137-0.181s0.164,0.289,0.31,0.705c0.147,0.419,0.266,0.959,0.175,1.46
	c-0.124,0.743-0.673,1.147-0.941,1.318c0,0,0.115-0.632,0.203-1.244c0.047-0.305,0.075-0.621,0.1-0.85
	c0.021-0.228,0.036-0.381,0.036-0.381s-0.032,0.151-0.079,0.378c-0.05,0.227-0.115,0.539-0.197,0.837
	c-0.084,0.307-0.168,0.613-0.231,0.842c-0.067,0.232-0.118,0.381-0.118,0.381C234.727,700.206,234.44,699.714,234.583,698.994
	 M232.461,700.347c0.077-0.232,0.194-0.471,0.329-0.692c0.133-0.223,0.289-0.419,0.428-0.6c0.275-0.36,0.519-0.596,0.519-0.596
	s0.537,1.213,0.259,2.203c-0.105,0.354-0.302,0.625-0.506,0.826c-0.207,0.196-0.427,0.312-0.571,0.381c0,0,0.044-0.152,0.111-0.379
	c0.066-0.226,0.149-0.528,0.221-0.835c0.074-0.305,0.141-0.606,0.189-0.83c0.05-0.222,0.075-0.377,0.075-0.377
	s-0.042,0.151-0.117,0.368c-0.078,0.221-0.18,0.516-0.284,0.811c-0.104,0.303-0.228,0.586-0.318,0.81
	c-0.094,0.222-0.157,0.369-0.157,0.369C232.482,701.573,232.238,701.035,232.461,700.347 M230.211,701.471
	c0.197-0.46,0.572-0.88,0.884-1.21c0.32-0.316,0.58-0.538,0.58-0.538s0.1,0.316,0.158,0.755c0.058,0.441,0.058,0.986-0.13,1.463
	c-0.137,0.35-0.362,0.595-0.589,0.767c-0.227,0.171-0.451,0.282-0.605,0.327c0,0,0.063-0.143,0.149-0.367
	c0.088-0.222,0.2-0.517,0.307-0.808c0.108-0.289,0.204-0.587,0.273-0.809c0.067-0.221,0.113-0.368,0.113-0.368
	s-0.062,0.143-0.155,0.355c-0.093,0.217-0.225,0.499-0.366,0.778c-0.14,0.28-0.285,0.565-0.399,0.777l-0.195,0.347
	C230.102,702.686,229.921,702.14,230.211,701.471 M227.855,702.352c0.249-0.421,0.657-0.829,1.009-1.105
	c0.344-0.296,0.63-0.478,0.63-0.478s0.067,0.324,0.077,0.763c0.009,0.435-0.039,1.002-0.279,1.446
	c-0.176,0.325-0.424,0.551-0.665,0.705c-0.246,0.144-0.484,0.218-0.64,0.254c0,0,0.075-0.14,0.189-0.35
	c0.11-0.21,0.255-0.48,0.389-0.768c0.135-0.284,0.263-0.566,0.357-0.776c0.093-0.208,0.151-0.35,0.151-0.35
	s-0.074,0.134-0.191,0.334c-0.118,0.199-0.279,0.466-0.445,0.737c-0.336,0.527-0.709,1.054-0.709,1.054
	C227.623,703.557,227.496,702.981,227.855,702.352 M225.422,702.984c0.288-0.41,0.744-0.741,1.117-0.999
	c0.187-0.127,0.358-0.221,0.48-0.293c0.121-0.074,0.198-0.114,0.198-0.114s0.139,1.331-0.433,2.176
	c-0.206,0.316-0.48,0.505-0.736,0.627c-0.258,0.122-0.5,0.182-0.661,0.194c0,0,0.092-0.125,0.224-0.328
	c0.131-0.199,0.303-0.463,0.467-0.727c0.166-0.261,0.322-0.528,0.435-0.734c0.113-0.201,0.188-0.335,0.188-0.335
	s-0.09,0.126-0.225,0.315c-0.135,0.194-0.324,0.438-0.52,0.684c-0.195,0.245-0.397,0.496-0.552,0.677
	c-0.158,0.179-0.263,0.298-0.263,0.298C225.062,704.15,224.999,703.577,225.422,702.984 M213.736,701.578
	c0,0,0.075,0.04,0.197,0.114c0.122,0.072,0.293,0.166,0.481,0.293c0.373,0.258,0.829,0.589,1.116,0.999
	c0.423,0.593,0.359,1.166,0.281,1.441c0,0-0.105-0.119-0.262-0.298c-0.156-0.181-0.358-0.432-0.553-0.677
	c-0.195-0.246-0.384-0.49-0.52-0.684c-0.134-0.189-0.224-0.315-0.224-0.315s0.074,0.134,0.186,0.335
	c0.114,0.206,0.271,0.473,0.436,0.734c0.165,0.264,0.336,0.528,0.468,0.727c0.13,0.203,0.223,0.328,0.223,0.328
	c-0.161-0.012-0.402-0.072-0.66-0.194c-0.258-0.122-0.53-0.311-0.736-0.627C213.596,702.909,213.736,701.578,213.736,701.578
	 M211.381,701.532c0.009-0.439,0.077-0.763,0.077-0.763s0.287,0.182,0.631,0.478c0.351,0.276,0.759,0.684,1.007,1.105
	c0.361,0.629,0.234,1.205,0.128,1.466c0,0-0.373-0.527-0.709-1.054c-0.167-0.271-0.327-0.538-0.444-0.737
	c-0.118-0.2-0.192-0.334-0.192-0.334s0.058,0.142,0.152,0.35c0.093,0.21,0.222,0.492,0.356,0.776c0.133,0.288,0.28,0.558,0.39,0.768
	c0.112,0.21,0.188,0.35,0.188,0.35c-0.157-0.036-0.394-0.11-0.639-0.254c-0.241-0.154-0.489-0.38-0.665-0.705
	C211.42,702.534,211.373,701.967,211.381,701.532 M209.12,700.478c0.057-0.439,0.158-0.755,0.158-0.755s0.26,0.222,0.579,0.538
	c0.312,0.33,0.688,0.75,0.885,1.21c0.29,0.669,0.108,1.215-0.025,1.469l-0.196-0.347c-0.113-0.212-0.259-0.497-0.399-0.777
	c-0.142-0.279-0.274-0.561-0.366-0.778c-0.093-0.212-0.155-0.355-0.155-0.355s0.045,0.147,0.114,0.368
	c0.069,0.222,0.165,0.52,0.273,0.809c0.106,0.291,0.219,0.586,0.306,0.808c0.087,0.224,0.15,0.367,0.15,0.367
	c-0.154-0.045-0.378-0.156-0.605-0.327c-0.228-0.172-0.453-0.417-0.589-0.767C209.06,701.464,209.06,700.919,209.12,700.478
	 M207.215,698.459c0,0,0.244,0.236,0.52,0.596c0.138,0.181,0.294,0.377,0.428,0.6c0.134,0.221,0.251,0.46,0.329,0.692
	c0.222,0.688-0.022,1.226-0.18,1.459c0,0-0.062-0.147-0.155-0.369c-0.09-0.224-0.214-0.507-0.319-0.81
	c-0.103-0.295-0.206-0.59-0.284-0.811c-0.075-0.217-0.117-0.368-0.117-0.368s0.025,0.155,0.075,0.377
	c0.047,0.224,0.116,0.525,0.189,0.83c0.071,0.307,0.154,0.609,0.222,0.835c0.066,0.227,0.111,0.379,0.111,0.379
	c-0.145-0.069-0.365-0.185-0.572-0.381c-0.204-0.201-0.401-0.472-0.506-0.826C206.678,699.672,207.215,698.459,207.215,698.459
	 M204.988,697.687c0.145-0.416,0.31-0.705,0.31-0.705s0.053,0.066,0.135,0.181c0.081,0.118,0.195,0.28,0.319,0.466
	c0.123,0.19,0.25,0.412,0.359,0.647c0.115,0.229,0.21,0.474,0.259,0.718c0.142,0.72-0.146,1.212-0.33,1.434
	c0,0-0.052-0.149-0.118-0.381c-0.063-0.229-0.147-0.535-0.231-0.842c-0.083-0.298-0.148-0.61-0.197-0.837
	c-0.048-0.227-0.079-0.378-0.079-0.378s0.014,0.153,0.036,0.381c0.024,0.229,0.053,0.545,0.1,0.85
	c0.086,0.612,0.203,1.244,0.203,1.244c-0.269-0.171-0.819-0.575-0.943-1.318C204.721,698.646,204.84,698.106,204.988,697.687
	 M203.158,695.987c0.184-0.396,0.379-0.667,0.379-0.667s0.045,0.072,0.119,0.192c0.072,0.121,0.17,0.293,0.269,0.497
	c0.096,0.207,0.207,0.434,0.295,0.676c0.088,0.241,0.15,0.503,0.177,0.747c0.078,0.718-0.271,1.192-0.473,1.39
	c0,0-0.032-0.158-0.078-0.393c-0.045-0.233-0.101-0.544-0.144-0.859c-0.041-0.31-0.082-0.619-0.113-0.85
	c-0.022-0.233-0.036-0.389-0.036-0.389s-0.003,0.156-0.007,0.388c0,0.23,0.006,0.536,0.015,0.85c0.014,0.63,0.076,1.257,0.076,1.257
	c-0.263-0.183-0.747-0.666-0.807-1.403C202.798,696.91,202.973,696.383,203.158,695.987 M201.516,694.106
	c0.228-0.378,0.448-0.626,0.448-0.626s0.039,0.076,0.096,0.205c0.061,0.127,0.129,0.316,0.215,0.523
	c0.081,0.209,0.162,0.452,0.221,0.704c0.058,0.253,0.107,0.507,0.104,0.758c-0.005,0.731-0.397,1.161-0.619,1.337
	c0,0-0.018-0.159-0.035-0.4c-0.015-0.237-0.035-0.553-0.056-0.868c-0.015-0.313-0.015-0.631-0.018-0.863
	c-0.001-0.23-0.002-0.384-0.002-0.384s-0.071,0.603-0.121,1.233c-0.038,0.615-0.053,1.257-0.053,1.257
	c-0.232-0.219-0.681-0.734-0.652-1.484C201.053,694.993,201.29,694.482,201.516,694.106 M200.586,691.491
	c0,0,0.027,0.081,0.073,0.215c0.047,0.133,0.107,0.32,0.164,0.539c0.104,0.444,0.23,0.99,0.167,1.492
	c-0.071,0.717-0.51,1.109-0.748,1.26c0,0-0.006-0.637,0.041-1.27c0.03-0.626,0.108-1.242,0.108-1.242s-0.146,0.601-0.246,1.213
	c-0.053,0.306-0.104,0.62-0.137,0.855c-0.03,0.234-0.048,0.391-0.048,0.391c-0.11-0.118-0.261-0.316-0.366-0.582
	c-0.107-0.267-0.19-0.585-0.133-0.958c0.072-0.508,0.351-0.987,0.613-1.336C200.339,691.716,200.586,691.491,200.586,691.491
	 M199.425,689.369c0,0,0.09,0.328,0.152,0.777c0.077,0.441,0.114,1.014,0.018,1.496c-0.151,0.71-0.629,1.056-0.882,1.181
	c0,0,0.077-0.644,0.173-1.259c0.11-0.628,0.237-1.224,0.237-1.224s-0.193,0.574-0.369,1.179c-0.09,0.303-0.161,0.601-0.22,0.833
	l-0.093,0.386c-0.092-0.131-0.22-0.345-0.305-0.616c-0.083-0.272-0.114-0.609-0.029-0.968c0.112-0.491,0.456-0.947,0.752-1.266
	C199.159,689.567,199.425,689.369,199.425,689.369 M198.517,687.366c0.015,0.14,0.039,0.335,0.049,0.56
	c0.011,0.454,0.017,1.016-0.145,1.492c-0.224,0.69-0.727,0.98-0.994,1.079c0,0,0.034-0.155,0.085-0.388
	c0.051-0.232,0.137-0.544,0.218-0.846c0.082-0.304,0.166-0.6,0.242-0.823c0.074-0.222,0.123-0.369,0.123-0.369
	s-0.065,0.14-0.162,0.35c-0.098,0.213-0.219,0.496-0.332,0.784c-0.115,0.289-0.227,0.584-0.31,0.809
	c-0.083,0.224-0.13,0.373-0.13,0.373c-0.085-0.137-0.184-0.365-0.236-0.646s-0.064-0.612,0.069-0.964
	c0.176-0.482,0.544-0.891,0.876-1.179c0.335-0.29,0.621-0.459,0.621-0.459S198.505,687.224,198.517,687.366 M196.349,686.022
	c0.479-0.69,1.576-0.965,1.576-0.965s-0.162,0.852-0.166,0.913c-0.013,0.123-0.031,0.25-0.054,0.377
	c-0.052,0.256-0.115,0.51-0.215,0.735c-0.294,0.662-0.833,0.901-1.106,0.971c0,0,0.204-0.612,0.429-1.195
	c0.119-0.295,0.24-0.582,0.332-0.795c0.084-0.237,0.075-0.229-0.038-0.023c-0.113,0.2-0.264,0.47-0.414,0.746
	c-0.153,0.279-0.284,0.556-0.389,0.77c-0.101,0.215-0.169,0.358-0.169,0.358C196.072,687.767,195.798,686.807,196.349,686.022
	 M194.696,683.036c0.15-0.471,0.322-0.793,0.322-0.793s0.202,0.305,0.422,0.735c0.221,0.432,0.465,0.986,0.531,1.521
	c0.097,0.783-0.219,1.324-0.399,1.565c0,0-0.141-0.667-0.258-1.34c-0.12-0.672-0.215-1.349-0.215-1.349s0.029,0.683,0.082,1.367
	c0.051,0.682,0.127,1.365,0.127,1.365c-0.245-0.173-0.718-0.612-0.819-1.425C194.421,684.126,194.545,683.507,194.696,683.036
	 M194.793,686.467c0.542,0.428,1.065,1.366,1.096,1.534c0,0-0.143-0.072-0.357-0.179c-0.213-0.112-0.508-0.259-0.784-0.42
	c-0.281-0.16-0.564-0.326-0.777-0.454c-0.211-0.122-0.212-0.087-0.017,0.042c0.2,0.149,0.469,0.349,0.736,0.548
	c0.546,0.385,1.093,0.734,1.093,0.734c-0.256,0.119-0.792,0.289-1.481-0.106c-1.291-0.739-1.546-2.371-1.546-2.371
	S193.837,685.713,194.793,686.467 M194.099,689.694c-0.162-0.213-0.298-0.409-0.387-0.555c-0.087-0.146-0.136-0.238-0.136-0.238
	s0.333-0.035,0.778-0.006c0.448,0.027,1.017,0.11,1.477,0.353c0.331,0.18,0.583,0.412,0.756,0.644
	c0.174,0.23,0.273,0.459,0.339,0.607c0,0-0.155-0.052-0.376-0.14c-0.222-0.089-0.52-0.21-0.82-0.338
	c-0.302-0.127-0.601-0.263-0.82-0.37c-0.222-0.108-0.37-0.18-0.37-0.18l0.356,0.225c0.209,0.134,0.503,0.303,0.793,0.466
	c0.292,0.163,0.573,0.322,0.795,0.433c0.221,0.109,0.368,0.183,0.368,0.183c-0.239,0.144-0.783,0.39-1.489,0.051
	C194.888,690.593,194.417,690.123,194.099,689.694 M194.72,691.635c0,0,0.33-0.07,0.778-0.09c0.453-0.021,1.006,0.014,1.501,0.2
	c0.359,0.138,0.618,0.351,0.816,0.562c0.201,0.209,0.33,0.423,0.405,0.567c0,0-0.155-0.041-0.387-0.102
	c-0.231-0.065-0.549-0.148-0.856-0.247c-0.613-0.195-1.243-0.421-1.243-0.421s0.615,0.299,1.216,0.567
	c0.618,0.261,1.221,0.49,1.221,0.49c-0.226,0.17-0.733,0.467-1.469,0.204c-0.513-0.176-1.004-0.61-1.382-0.994
	C194.957,691.98,194.72,691.635,194.72,691.635 M196.326,694.439c-0.118-0.123-0.183-0.204-0.183-0.204s0.318-0.103,0.761-0.168
	c0.446-0.068,1.017-0.103,1.517,0.04c0.361,0.106,0.659,0.279,0.873,0.471c0.215,0.193,0.366,0.391,0.459,0.524
	c0,0-0.159-0.024-0.399-0.059c-0.237-0.039-0.551-0.097-0.871-0.161c-0.643-0.121-1.278-0.29-1.278-0.29s0.629,0.243,1.267,0.437
	c0.318,0.1,0.627,0.197,0.87,0.257c0.237,0.063,0.395,0.105,0.395,0.105c-0.206,0.191-0.682,0.541-1.447,0.359
	c-0.509-0.135-1.072-0.494-1.47-0.848C196.617,694.727,196.446,694.561,196.326,694.439 M198.569,697.264
	c-0.226-0.146-0.402-0.303-0.534-0.412c-0.13-0.11-0.205-0.183-0.205-0.183s0.307-0.135,0.741-0.247
	c0.435-0.111,0.99-0.198,1.511-0.116c0.746,0.131,1.221,0.599,1.425,0.855c0,0-0.632-0.03-1.287-0.085
	c-0.64-0.066-1.301-0.159-1.301-0.159s0.659,0.17,1.305,0.304c0.326,0.06,0.651,0.119,0.894,0.164
	c0.24,0.043,0.402,0.066,0.402,0.066c-0.185,0.211-0.626,0.611-1.396,0.501c-0.263-0.039-0.549-0.127-0.813-0.255
	C199.047,697.569,198.792,697.414,198.569,697.264 M200.555,699.432c-0.233-0.13-0.434-0.258-0.576-0.353
	c-0.143-0.094-0.224-0.16-0.224-0.16s0.289-0.165,0.713-0.324c0.422-0.157,0.972-0.308,1.489-0.269
	c0.766,0.042,1.271,0.475,1.51,0.698c0,0-0.642,0.047-1.288,0.046c-0.324,0.003-0.654,0.002-0.902-0.004
	c-0.245-0.01-0.409-0.017-0.409-0.017l0.415,0.064c0.249,0.028,0.582,0.066,0.915,0.103c0.327,0.037,0.657,0.06,0.905,0.072
	c0.244,0.013,0.408,0.022,0.408,0.022c-0.163,0.23-0.555,0.669-1.341,0.648c-0.271-0.006-0.551-0.08-0.831-0.174
	C201.06,699.687,200.785,699.565,200.555,699.432 M203.567,701.656c-0.285-0.071-0.565-0.172-0.813-0.274
	c-0.25-0.099-0.462-0.207-0.61-0.291c-0.148-0.083-0.237-0.138-0.237-0.138s0.272-0.196,0.674-0.394
	c0.399-0.194,0.931-0.402,1.455-0.425c0.755-0.021,1.32,0.333,1.569,0.546c0,0-0.624,0.099-1.274,0.177
	c-0.327,0.042-0.647,0.063-0.894,0.084c-0.247,0.017-0.412,0.03-0.412,0.03s0.169,0.006,0.422,0.016
	c0.253,0.007,0.582,0.02,0.918,0.012c0.33-0.006,0.659-0.014,0.906-0.019c0.244-0.009,0.409-0.023,0.409-0.023
	c-0.134,0.241-0.49,0.734-1.264,0.781C204.149,701.754,203.857,701.719,203.567,701.656 M205.982,703.28
	c-0.291-0.04-0.587-0.102-0.841-0.182c-0.508-0.16-0.887-0.339-0.887-0.339s1.007-0.891,2.033-1.034
	c0.381-0.059,0.715-0.008,0.989,0.082c0.276,0.085,0.497,0.201,0.633,0.291c0,0-0.155,0.041-0.388,0.104
	c-0.234,0.063-0.549,0.141-0.864,0.207c-0.315,0.068-0.638,0.133-0.882,0.18c-0.246,0.049-0.406,0.071-0.406,0.071
	s0.167-0.004,0.421-0.028c0.25-0.022,0.583-0.053,0.916-0.084c0.326-0.028,0.659-0.084,0.901-0.117
	c0.241-0.036,0.403-0.062,0.403-0.062c-0.113,0.26-0.406,0.77-1.178,0.909C206.565,703.328,206.274,703.319,205.982,703.28
	 M207.698,704.552c-0.53-0.094-0.919-0.244-0.919-0.244s0.227-0.248,0.578-0.523c0.35-0.272,0.833-0.593,1.337-0.717
	c0.368-0.088,0.708-0.077,0.992-0.023c0.285,0.054,0.51,0.163,0.658,0.23c0,0-0.151,0.063-0.374,0.143
	c-0.225,0.082-0.528,0.19-0.837,0.294c-0.311,0.108-0.622,0.2-0.859,0.269l-0.395,0.112c0,0,0.166-0.028,0.415-0.07
	c0.246-0.039,0.576-0.104,0.902-0.179c0.325-0.071,0.644-0.144,0.881-0.204c0.238-0.065,0.396-0.108,0.396-0.108
	c-0.082,0.264-0.326,0.815-1.076,1.027C208.884,704.702,208.22,704.66,207.698,704.552 M210.389,705.741
	c-0.53-0.054-0.937-0.152-0.937-0.152s0.199-0.27,0.521-0.584c0.324-0.317,0.761-0.663,1.253-0.848
	c0.361-0.136,0.698-0.155,0.984-0.123c0.29,0.021,0.528,0.094,0.679,0.152c0,0-0.142,0.073-0.356,0.182
	c-0.215,0.106-0.509,0.255-0.803,0.382c-0.295,0.132-0.596,0.262-0.825,0.358c-0.229,0.096-0.384,0.156-0.384,0.156
	s0.164-0.044,0.407-0.116c0.24-0.074,0.559-0.172,0.878-0.27c0.315-0.101,0.628-0.219,0.858-0.303
	c0.228-0.085,0.381-0.143,0.381-0.143c-0.056,0.277-0.237,0.836-0.962,1.131C211.582,705.775,210.928,705.773,210.389,705.741
	 M213.194,706.63c-0.267,0.005-0.507,0-0.677-0.015c-0.17-0.017-0.272-0.033-0.272-0.033s0.169-0.289,0.456-0.631
	s0.691-0.752,1.159-0.98c0.341-0.161,0.677-0.225,0.966-0.228c0.29-0.005,0.532,0.053,0.69,0.087c0,0-0.133,0.095-0.336,0.219
	c-0.202,0.127-0.476,0.295-0.757,0.461c-0.282,0.17-0.567,0.329-0.784,0.441c-0.218,0.116-0.364,0.193-0.364,0.193
	s0.157-0.062,0.393-0.154c0.232-0.089,0.542-0.225,0.844-0.364c0.304-0.138,0.6-0.273,0.82-0.383
	c0.22-0.113,0.365-0.189,0.365-0.189c-0.025,0.277-0.148,0.864-0.839,1.23C214.386,706.529,213.728,706.628,213.194,706.63
	 M217.693,706.707c-0.445,0.312-1.085,0.444-1.619,0.526c-0.529,0.057-0.948,0.047-0.948,0.047s0.138-0.307,0.388-0.68
	c0.251-0.377,0.607-0.807,1.05-1.091c0.323-0.207,0.65-0.296,0.937-0.324c0.287-0.038,0.535-0.019,0.696,0.008
	c0,0-0.125,0.1-0.311,0.251c-0.189,0.151-0.445,0.355-0.706,0.542c-0.261,0.19-0.529,0.38-0.733,0.52
	c-0.204,0.144-0.343,0.234-0.343,0.234s0.152-0.078,0.374-0.2c0.219-0.121,0.511-0.284,0.803-0.446
	c0.286-0.162,0.568-0.346,0.775-0.475c0.206-0.131,0.344-0.219,0.344-0.219C218.403,705.682,218.342,706.267,217.693,706.707
	 M218.447,704.762c0,0-0.116-0.109-0.292-0.274c-0.173-0.168-0.401-0.379-0.62-0.61c-0.214-0.228-0.428-0.457-0.589-0.628
	c-0.156-0.17-0.257-0.286-0.257-0.286s0.086,0.127,0.222,0.312c0.135,0.185,0.319,0.433,0.51,0.683
	c0.19,0.253,0.389,0.491,0.541,0.671c0.154,0.182,0.257,0.302,0.257,0.302c-0.161-0.003-0.409-0.023-0.678-0.114
	c-0.269-0.102-0.558-0.271-0.797-0.552c-0.329-0.385-0.493-0.929-0.575-1.356c-0.082-0.431-0.083-0.762-0.083-0.762
	s0.317,0.117,0.716,0.337c0.401,0.195,0.885,0.51,1.216,0.87C218.502,703.895,218.496,704.485,218.447,704.762 M220.483,706.015
	c-0.513,0.004-0.933-0.41-0.937-0.924s0.409-0.933,0.923-0.937s0.933,0.41,0.937,0.923
	C221.41,705.591,220.997,706.011,220.483,706.015 M222.934,703.355c0.331-0.36,0.815-0.675,1.217-0.87
	c0.398-0.22,0.716-0.337,0.716-0.337s-0.002,0.331-0.083,0.762c-0.083,0.427-0.247,0.971-0.575,1.356
	c-0.239,0.281-0.53,0.45-0.797,0.552c-0.27,0.091-0.518,0.111-0.678,0.114c0,0,0.103-0.12,0.256-0.302
	c0.152-0.18,0.352-0.418,0.541-0.671c0.191-0.25,0.376-0.498,0.511-0.683s0.221-0.312,0.221-0.312s-0.1,0.116-0.257,0.286
	c-0.161,0.171-0.374,0.4-0.588,0.628c-0.22,0.231-0.448,0.442-0.621,0.61c-0.175,0.165-0.292,0.274-0.292,0.274
	C222.456,704.485,222.451,703.895,222.934,703.355 M224.878,707.233c-0.533-0.082-1.173-0.214-1.618-0.526
	c-0.65-0.44-0.71-1.025-0.707-1.307c0,0,0.137,0.088,0.342,0.219c0.208,0.129,0.49,0.313,0.777,0.475
	c0.291,0.162,0.583,0.325,0.801,0.446c0.224,0.122,0.374,0.2,0.374,0.2s-0.137-0.09-0.341-0.234c-0.204-0.14-0.473-0.33-0.734-0.52
	c-0.26-0.187-0.516-0.391-0.705-0.542c-0.187-0.151-0.311-0.251-0.311-0.251c0.16-0.027,0.409-0.046,0.696-0.008
	c0.287,0.028,0.612,0.117,0.936,0.324c0.444,0.284,0.799,0.714,1.05,1.091c0.25,0.373,0.388,0.68,0.388,0.68
	S225.408,707.29,224.878,707.233 M228.435,706.615c-0.17,0.015-0.41,0.02-0.677,0.015c-0.534-0.002-1.192-0.101-1.663-0.346
	c-0.691-0.366-0.815-0.953-0.84-1.23c0,0,0.146,0.076,0.365,0.189c0.221,0.11,0.517,0.245,0.819,0.383
	c0.304,0.139,0.614,0.275,0.846,0.364c0.235,0.092,0.392,0.154,0.392,0.154s-0.146-0.077-0.365-0.193
	c-0.216-0.112-0.502-0.271-0.783-0.441c-0.281-0.166-0.555-0.334-0.757-0.461c-0.202-0.124-0.336-0.219-0.336-0.219
	c0.159-0.034,0.401-0.092,0.69-0.087c0.29,0.003,0.625,0.067,0.967,0.228c0.467,0.228,0.872,0.638,1.159,0.98
	c0.286,0.342,0.456,0.631,0.456,0.631S228.604,706.598,228.435,706.615 M230.563,705.741c-0.539,0.032-1.192,0.034-1.693-0.178
	c-0.727-0.295-0.907-0.854-0.963-1.131c0,0,0.152,0.058,0.381,0.143c0.229,0.084,0.543,0.202,0.857,0.303
	c0.32,0.098,0.639,0.196,0.878,0.27c0.244,0.072,0.407,0.116,0.407,0.116s-0.153-0.06-0.382-0.156
	c-0.23-0.096-0.531-0.226-0.826-0.358c-0.293-0.127-0.587-0.276-0.802-0.382c-0.215-0.109-0.358-0.182-0.358-0.182
	c0.153-0.058,0.391-0.131,0.68-0.152c0.286-0.032,0.624-0.013,0.983,0.123c0.493,0.185,0.93,0.531,1.254,0.848
	c0.323,0.314,0.522,0.584,0.522,0.584S231.094,705.687,230.563,705.741 M233.255,704.552c-0.524,0.108-1.186,0.15-1.7,0.007
	c-0.751-0.212-0.994-0.763-1.077-1.027c0,0,0.159,0.043,0.397,0.108c0.237,0.06,0.555,0.133,0.882,0.204
	c0.326,0.075,0.655,0.14,0.901,0.179c0.25,0.042,0.416,0.07,0.416,0.07s-0.158-0.045-0.396-0.112
	c-0.237-0.069-0.547-0.161-0.858-0.269c-0.309-0.104-0.613-0.212-0.837-0.294c-0.224-0.08-0.374-0.143-0.374-0.143
	c0.148-0.067,0.372-0.176,0.656-0.23c0.286-0.054,0.625-0.065,0.993,0.023c0.504,0.124,0.988,0.445,1.337,0.717
	c0.352,0.275,0.578,0.523,0.578,0.523S233.785,704.458,233.255,704.552 M235.811,703.098c-0.255,0.08-0.55,0.142-0.841,0.182
	c-0.292,0.039-0.583,0.048-0.85-0.002c-0.773-0.139-1.066-0.649-1.177-0.909c0,0,0.161,0.026,0.402,0.062
	c0.242,0.033,0.576,0.089,0.902,0.117c0.333,0.031,0.666,0.062,0.915,0.084c0.255,0.024,0.421,0.028,0.421,0.028
	s-0.16-0.022-0.405-0.071c-0.245-0.047-0.567-0.112-0.883-0.18c-0.315-0.066-0.629-0.144-0.865-0.207
	c-0.231-0.063-0.386-0.104-0.386-0.104c0.135-0.09,0.356-0.206,0.633-0.291c0.273-0.09,0.608-0.141,0.988-0.082
	c1.027,0.143,2.034,1.034,2.034,1.034S236.32,702.938,235.811,703.098 M238.807,701.091c-0.147,0.084-0.359,0.192-0.609,0.291
	c-0.248,0.102-0.527,0.203-0.812,0.274c-0.291,0.063-0.583,0.098-0.849,0.082c-0.775-0.047-1.13-0.54-1.265-0.781
	c0,0,0.165,0.014,0.409,0.023c0.247,0.005,0.577,0.013,0.906,0.019c0.336,0.008,0.666-0.005,0.918-0.012
	c0.254-0.01,0.422-0.016,0.422-0.016s-0.165-0.013-0.412-0.03c-0.248-0.021-0.567-0.042-0.893-0.084
	c-0.652-0.078-1.275-0.177-1.275-0.177c0.248-0.213,0.814-0.567,1.569-0.546c0.523,0.023,1.056,0.231,1.455,0.425
	c0.401,0.198,0.674,0.394,0.674,0.394S238.957,701.008,238.807,701.091 M240.973,699.079c-0.142,0.095-0.342,0.223-0.576,0.353
	c-0.23,0.133-0.505,0.255-0.784,0.352c-0.28,0.094-0.56,0.168-0.83,0.174c-0.786,0.021-1.179-0.418-1.342-0.648
	c0,0,0.163-0.009,0.408-0.022c0.247-0.012,0.578-0.035,0.905-0.072c0.333-0.037,0.666-0.075,0.916-0.103
	c0.249-0.038,0.414-0.064,0.414-0.064s-0.163,0.007-0.409,0.017c-0.247,0.006-0.579,0.007-0.902,0.004
	c-0.645,0.001-1.288-0.046-1.288-0.046c0.239-0.223,0.743-0.656,1.511-0.698c0.516-0.039,1.066,0.112,1.489,0.269
	c0.423,0.159,0.713,0.324,0.713,0.324S241.117,698.985,240.973,699.079 M242.918,696.852c-0.132,0.109-0.309,0.266-0.534,0.412
	c-0.223,0.15-0.479,0.305-0.743,0.433c-0.264,0.128-0.549,0.216-0.812,0.255c-0.772,0.11-1.212-0.29-1.397-0.501
	c0,0,0.163-0.023,0.402-0.066c0.244-0.045,0.569-0.104,0.893-0.164c0.648-0.134,1.306-0.304,1.306-0.304s-0.661,0.093-1.3,0.159
	c-0.655,0.055-1.287,0.085-1.287,0.085c0.203-0.256,0.678-0.724,1.425-0.855c0.52-0.082,1.076,0.005,1.511,0.116
	c0.433,0.112,0.741,0.247,0.741,0.247S243.048,696.742,242.918,696.852 M244.627,694.439c-0.121,0.122-0.292,0.288-0.494,0.463
	c-0.398,0.354-0.961,0.713-1.471,0.848c-0.766,0.182-1.241-0.168-1.447-0.359c0,0,0.159-0.042,0.396-0.105
	c0.242-0.06,0.552-0.157,0.869-0.257c0.638-0.194,1.268-0.437,1.268-0.437s-0.636,0.169-1.279,0.29
	c-0.32,0.064-0.634,0.122-0.871,0.161c-0.239,0.035-0.398,0.059-0.398,0.059c0.093-0.133,0.244-0.331,0.458-0.524
	c0.214-0.192,0.512-0.365,0.874-0.471c0.499-0.143,1.069-0.108,1.517-0.04c0.443,0.065,0.76,0.168,0.76,0.168
	S244.744,694.316,244.627,694.439 M245.633,692.371c-0.379,0.384-0.87,0.818-1.382,0.994c-0.737,0.263-1.244-0.034-1.47-0.204
	c0,0,0.604-0.229,1.222-0.49c0.599-0.268,1.216-0.567,1.216-0.567s-0.63,0.226-1.245,0.421c-0.305,0.099-0.625,0.182-0.855,0.247
	l-0.386,0.102c0.073-0.144,0.202-0.358,0.404-0.567c0.198-0.211,0.457-0.424,0.816-0.562c0.496-0.186,1.049-0.221,1.501-0.2
	c0.449,0.02,0.778,0.09,0.778,0.09S245.996,691.98,245.633,692.371 M247.241,689.139c-0.09,0.146-0.226,0.342-0.388,0.555
	c-0.317,0.429-0.789,0.899-1.264,1.135c-0.705,0.339-1.249,0.093-1.489-0.051c0,0,0.147-0.074,0.368-0.183
	c0.221-0.111,0.503-0.27,0.794-0.433s0.585-0.332,0.794-0.466l0.357-0.225c0,0-0.149,0.072-0.37,0.18
	c-0.219,0.107-0.519,0.243-0.821,0.37c-0.3,0.128-0.597,0.249-0.819,0.338c-0.223,0.088-0.376,0.14-0.376,0.14
	c0.065-0.148,0.164-0.377,0.338-0.607c0.173-0.232,0.425-0.464,0.757-0.644c0.459-0.243,1.028-0.326,1.476-0.353
	c0.445-0.029,0.779,0.006,0.779,0.006S247.328,688.993,247.241,689.139"/>
<path fill="#0039A6" d="M200.625,674.544c-0.08,0.03-0.167,0.068-0.261,0.112c-0.093,0.044-0.189,0.092-0.287,0.146
	c-0.097,0.053-0.191,0.109-0.282,0.171c-0.092,0.06-0.174,0.123-0.247,0.187l0.923,0.179l-0.095,0.49l-2.181-0.421l0.096-0.491
	l0.819,0.158c-0.108-0.151-0.221-0.306-0.341-0.465c-0.12-0.158-0.231-0.303-0.334-0.438l0.113-0.582
	c0.147,0.183,0.288,0.364,0.422,0.546c0.134,0.181,0.268,0.371,0.401,0.569c0.179-0.146,0.384-0.281,0.615-0.405
	c0.231-0.123,0.482-0.236,0.751-0.339L200.625,674.544z"/>
<path fill="#0039A6" d="M201.462,671.761c-0.081-0.002-0.165-0.003-0.25-0.003c-0.087,0-0.173,0.001-0.257,0.001l-0.286,0.818
	c0.068,0.054,0.135,0.107,0.203,0.161c0.068,0.053,0.133,0.104,0.198,0.152l-0.17,0.49c-0.198-0.157-0.382-0.304-0.549-0.442
	s-0.323-0.27-0.469-0.397c-0.146-0.127-0.284-0.25-0.413-0.368c-0.13-0.119-0.255-0.239-0.376-0.36l0.156-0.447
	c0.169-0.019,0.342-0.036,0.517-0.049c0.176-0.014,0.36-0.026,0.554-0.034c0.192-0.009,0.397-0.016,0.614-0.02
	c0.216-0.005,0.451-0.007,0.704-0.008L201.462,671.761z M199.643,671.764c0.027,0.021,0.062,0.051,0.108,0.09
	c0.045,0.038,0.098,0.083,0.158,0.133c0.059,0.049,0.126,0.104,0.197,0.165s0.146,0.124,0.225,0.188l0.209-0.599
	c-0.102,0-0.2,0.001-0.293,0.002c-0.093,0.001-0.179,0.003-0.257,0.006c-0.078,0.004-0.147,0.006-0.206,0.009
	C199.724,671.76,199.677,671.762,199.643,671.764"/>
<path fill="#0039A6" d="M200.545,668.437c0.205,0.007,0.417,0.02,0.635,0.038c0.219,0.018,0.431,0.037,0.64,0.058
	c0.209,0.02,0.409,0.043,0.598,0.067c0.19,0.025,0.358,0.048,0.507,0.069l-0.253,0.49c-0.135-0.023-0.278-0.045-0.434-0.068
	c-0.155-0.023-0.31-0.045-0.464-0.066c-0.156-0.021-0.304-0.04-0.447-0.058c-0.142-0.018-0.266-0.031-0.373-0.039
	c0.068,0.085,0.15,0.18,0.246,0.285c0.097,0.107,0.199,0.216,0.307,0.329c0.106,0.115,0.214,0.228,0.322,0.341
	c0.109,0.114,0.21,0.218,0.305,0.314l-0.244,0.472c-0.104-0.106-0.22-0.23-0.349-0.371c-0.129-0.14-0.263-0.291-0.401-0.449
	c-0.139-0.159-0.278-0.322-0.417-0.49c-0.14-0.168-0.272-0.334-0.397-0.498L200.545,668.437z"/>
<path fill="#0039A6" d="M202.25,665.717c0.202,0.036,0.41,0.079,0.623,0.128s0.422,0.099,0.626,0.148
	c0.204,0.051,0.397,0.102,0.581,0.154c0.185,0.051,0.348,0.098,0.492,0.14l-0.321,0.449c-0.129-0.041-0.269-0.084-0.419-0.129
	c-0.149-0.045-0.3-0.089-0.451-0.132s-0.294-0.083-0.433-0.121c-0.138-0.039-0.26-0.07-0.363-0.092
	c0.054,0.093,0.122,0.199,0.202,0.317c0.081,0.119,0.167,0.242,0.256,0.37c0.09,0.127,0.181,0.255,0.271,0.383
	c0.091,0.127,0.176,0.245,0.257,0.355l-0.309,0.432c-0.087-0.121-0.185-0.259-0.292-0.418c-0.108-0.157-0.218-0.325-0.333-0.502
	s-0.229-0.359-0.343-0.545c-0.114-0.185-0.222-0.369-0.321-0.549L202.25,665.717z"/>
<rect x="204.143" y="663.664" transform="matrix(0.6649 -0.747 0.747 0.6649 -428.0621 375.4613)" fill="#0039A6" width="0.499" height="2.22"/>
<path fill="#0039A6" d="M206.908,662.375c0.128,0.141,0.218,0.284,0.272,0.429c0.055,0.145,0.078,0.287,0.07,0.424
	c-0.007,0.138-0.044,0.271-0.113,0.398c-0.067,0.128-0.159,0.244-0.275,0.348c-0.112,0.102-0.235,0.179-0.367,0.233
	c-0.134,0.054-0.27,0.078-0.41,0.073c-0.139-0.005-0.279-0.041-0.418-0.109c-0.14-0.07-0.273-0.174-0.401-0.315
	c-0.127-0.141-0.217-0.285-0.268-0.432c-0.053-0.148-0.075-0.291-0.065-0.432c0.01-0.142,0.048-0.274,0.113-0.4
	c0.067-0.126,0.155-0.239,0.264-0.338c0.112-0.102,0.235-0.179,0.368-0.233c0.133-0.053,0.27-0.077,0.41-0.072
	c0.14,0.006,0.281,0.043,0.419,0.111C206.647,662.129,206.781,662.233,206.908,662.375 M205.65,663.511
	c0.072,0.081,0.148,0.144,0.226,0.191c0.079,0.048,0.158,0.077,0.238,0.091c0.079,0.014,0.157,0.008,0.234-0.016
	c0.077-0.023,0.151-0.066,0.22-0.129c0.068-0.061,0.118-0.13,0.15-0.205c0.032-0.074,0.045-0.152,0.04-0.232
	s-0.027-0.162-0.065-0.245c-0.039-0.083-0.095-0.164-0.168-0.245s-0.15-0.146-0.229-0.194c-0.079-0.048-0.158-0.078-0.237-0.092
	c-0.08-0.012-0.159-0.007-0.236,0.017c-0.077,0.023-0.151,0.066-0.219,0.128c-0.069,0.063-0.12,0.132-0.149,0.207
	c-0.032,0.075-0.044,0.152-0.038,0.232c0.004,0.081,0.027,0.164,0.066,0.247C205.523,663.35,205.578,663.431,205.65,663.511
	 M205.688,663.204l0.53-0.479l0.267,0.295l-0.53,0.479L205.688,663.204z"/>
<polygon fill="#0039A6" points="208.362,662.673 207.104,660.843 208.34,659.993 208.578,660.339 207.754,660.905 208.001,661.265 
	208.732,660.762 208.964,661.1 208.233,661.603 208.536,662.043 209.421,661.436 209.658,661.781 "/>
<path fill="#0039A6" d="M211.769,660.633c-0.056-0.057-0.116-0.115-0.178-0.175c-0.063-0.06-0.125-0.119-0.187-0.178l-0.772,0.395
	c0.011,0.085,0.024,0.17,0.036,0.255s0.024,0.168,0.038,0.247l-0.463,0.236c-0.034-0.252-0.064-0.484-0.09-0.699
	c-0.025-0.215-0.047-0.419-0.064-0.61c-0.018-0.194-0.032-0.377-0.044-0.552c-0.011-0.176-0.019-0.349-0.022-0.52l0.422-0.216
	c0.135,0.104,0.271,0.211,0.407,0.323c0.137,0.112,0.278,0.231,0.423,0.358c0.146,0.127,0.298,0.264,0.457,0.41
	c0.159,0.147,0.331,0.308,0.514,0.483L211.769,660.633z M210.454,659.377c0.004,0.034,0.01,0.08,0.016,0.14
	c0.005,0.058,0.013,0.127,0.022,0.204c0.009,0.077,0.018,0.163,0.027,0.256c0.01,0.093,0.021,0.191,0.034,0.292l0.565-0.288
	c-0.074-0.071-0.145-0.138-0.214-0.202c-0.067-0.063-0.132-0.121-0.189-0.173c-0.059-0.051-0.111-0.097-0.156-0.136
	C210.515,659.43,210.479,659.398,210.454,659.377"/>
<rect x="212.446" y="658.916" transform="matrix(0.934 -0.3572 0.3572 0.934 -221.4011 119.5401)" fill="#0039A6" width="0.929" height="0.432"/>
<path fill="#0039A6" d="M214.456,657.269c0.055,0.059,0.119,0.133,0.192,0.221c0.075,0.088,0.153,0.184,0.235,0.288
	c0.083,0.103,0.165,0.211,0.247,0.319c0.083,0.109,0.16,0.213,0.233,0.309c0.019-0.119,0.039-0.246,0.06-0.382
	c0.021-0.135,0.044-0.268,0.068-0.399c0.024-0.129,0.047-0.251,0.071-0.364c0.024-0.112,0.045-0.208,0.066-0.285l0.441-0.11
	c0.057,0.137,0.116,0.293,0.178,0.465s0.124,0.353,0.185,0.542c0.061,0.188,0.122,0.377,0.181,0.567
	c0.06,0.189,0.115,0.369,0.166,0.537l-0.472,0.118c-0.059-0.208-0.124-0.433-0.197-0.678c-0.071-0.244-0.149-0.489-0.233-0.734
	c-0.016,0.096-0.032,0.203-0.052,0.32c-0.019,0.118-0.038,0.234-0.057,0.351c-0.018,0.117-0.036,0.228-0.053,0.336
	c-0.018,0.106-0.032,0.197-0.044,0.273l-0.339,0.084c-0.046-0.06-0.103-0.133-0.168-0.22c-0.065-0.086-0.134-0.176-0.205-0.271
	c-0.071-0.094-0.143-0.188-0.215-0.283c-0.072-0.094-0.138-0.18-0.197-0.258c0.042,0.256,0.089,0.509,0.139,0.758
	c0.052,0.25,0.101,0.479,0.147,0.69l-0.473,0.119c-0.034-0.172-0.069-0.356-0.106-0.552c-0.036-0.196-0.072-0.391-0.107-0.586
	c-0.034-0.195-0.065-0.383-0.091-0.565c-0.027-0.181-0.048-0.346-0.063-0.495L214.456,657.269z"/>
<path fill="#0039A6" d="M219.647,657.552c0.018,0.189,0.004,0.358-0.039,0.506c-0.043,0.149-0.109,0.277-0.198,0.382
	c-0.09,0.106-0.199,0.189-0.33,0.25c-0.131,0.062-0.273,0.099-0.429,0.113c-0.151,0.014-0.295,0.003-0.434-0.035
	c-0.139-0.037-0.262-0.098-0.371-0.186c-0.109-0.088-0.198-0.201-0.269-0.339c-0.07-0.139-0.114-0.303-0.131-0.492
	c-0.017-0.19-0.003-0.359,0.044-0.508c0.047-0.148,0.116-0.276,0.208-0.384c0.092-0.106,0.202-0.19,0.331-0.252
	c0.129-0.06,0.267-0.097,0.413-0.111c0.152-0.014,0.296-0.002,0.435,0.035c0.138,0.036,0.262,0.1,0.37,0.189
	c0.109,0.088,0.199,0.202,0.27,0.339C219.587,657.198,219.631,657.362,219.647,657.552 M217.96,657.704
	c0.01,0.109,0.031,0.205,0.066,0.29c0.035,0.085,0.08,0.156,0.135,0.215c0.056,0.058,0.121,0.101,0.197,0.129
	c0.076,0.027,0.161,0.037,0.253,0.028c0.092-0.009,0.173-0.033,0.244-0.073c0.07-0.041,0.127-0.095,0.171-0.162
	c0.044-0.068,0.077-0.146,0.095-0.236c0.019-0.089,0.023-0.188,0.013-0.296c-0.01-0.11-0.031-0.207-0.067-0.292
	c-0.034-0.086-0.08-0.159-0.135-0.216c-0.055-0.059-0.121-0.102-0.199-0.129c-0.076-0.028-0.16-0.037-0.252-0.029
	c-0.092,0.009-0.174,0.034-0.244,0.076c-0.069,0.041-0.125,0.095-0.17,0.163c-0.044,0.067-0.075,0.146-0.093,0.237
	C217.955,657.5,217.95,657.599,217.96,657.704"/>
<path fill="#0039A6" d="M221.176,657.564c-0.046-0.067-0.097-0.138-0.151-0.211c-0.055-0.072-0.11-0.143-0.164-0.213
	c-0.055-0.069-0.109-0.137-0.159-0.202c-0.051-0.064-0.096-0.122-0.137-0.173l0.012-0.324l1.63,0.067l-0.016,0.419l-0.967-0.039
	c0.085,0.113,0.173,0.229,0.264,0.35s0.175,0.237,0.252,0.349c-0.034,0.038-0.08,0.085-0.139,0.144
	c-0.059,0.059-0.12,0.121-0.186,0.186c-0.064,0.064-0.127,0.127-0.187,0.189s-0.11,0.115-0.148,0.158l1.054,0.043l-0.018,0.42
	l-1.677-0.069l0.014-0.346c0.108-0.117,0.225-0.24,0.352-0.369S221.056,657.688,221.176,657.564"/>
<path fill="#0039A6" d="M224.263,659.03c-0.041-0.132-0.088-0.267-0.141-0.404c-0.051-0.137-0.118-0.257-0.199-0.36
	c-0.035,0.028-0.08,0.067-0.135,0.118c-0.054,0.049-0.11,0.104-0.166,0.162c-0.056,0.057-0.11,0.118-0.161,0.18
	c-0.052,0.065-0.09,0.115-0.116,0.151l-0.562-0.094c0.121-0.156,0.259-0.315,0.416-0.476c0.155-0.161,0.327-0.331,0.516-0.509
	l-0.534-1.2l0.598,0.1l0.311,0.704l0.532-0.562l0.563,0.093l-0.888,0.938c0.148,0.265,0.265,0.505,0.353,0.72
	c0.088,0.214,0.155,0.394,0.203,0.539L224.263,659.03z"/>
<path fill="#0039A6" d="M227.112,659.784c0-0.081-0.002-0.165-0.005-0.251l-0.009-0.257l-0.828-0.258
	c-0.051,0.068-0.102,0.137-0.153,0.207c-0.051,0.069-0.1,0.137-0.146,0.203l-0.495-0.155c0.151-0.203,0.293-0.391,0.425-0.563
	c0.131-0.171,0.258-0.331,0.38-0.481c0.123-0.15,0.242-0.291,0.356-0.424c0.114-0.134,0.23-0.263,0.348-0.387l0.452,0.142
	c0.023,0.168,0.046,0.34,0.065,0.514c0.02,0.176,0.036,0.36,0.052,0.552c0.015,0.193,0.028,0.398,0.039,0.613
	c0.012,0.216,0.021,0.452,0.03,0.705L227.112,659.784z M227.051,657.966c-0.021,0.027-0.049,0.064-0.086,0.11
	c-0.037,0.047-0.08,0.101-0.128,0.162c-0.048,0.062-0.1,0.129-0.159,0.203c-0.059,0.073-0.119,0.15-0.181,0.231l0.606,0.19
	c-0.003-0.102-0.007-0.2-0.012-0.293c-0.004-0.093-0.009-0.179-0.015-0.257c-0.005-0.078-0.01-0.147-0.014-0.206
	C227.058,658.046,227.054,657.999,227.051,657.966"/>
<polygon fill="#0039A6" points="230.49,658.783 230.316,659.173 229.705,658.9 228.974,660.539 228.517,660.336 229.248,658.696 
	228.636,658.424 228.809,658.035 "/>
<path fill="#0039A6" d="M232.604,661.296c-0.099,0.162-0.211,0.29-0.334,0.383c-0.124,0.093-0.253,0.156-0.387,0.187
	c-0.135,0.031-0.273,0.033-0.414,0.004c-0.142-0.029-0.279-0.084-0.412-0.166c-0.129-0.079-0.238-0.175-0.328-0.287
	c-0.089-0.112-0.15-0.236-0.185-0.371c-0.035-0.136-0.039-0.28-0.013-0.433c0.026-0.153,0.089-0.31,0.189-0.473
	c0.099-0.162,0.211-0.289,0.338-0.38c0.126-0.092,0.258-0.153,0.396-0.184c0.139-0.03,0.276-0.032,0.416-0.004
	c0.14,0.027,0.272,0.08,0.398,0.157c0.129,0.079,0.239,0.175,0.328,0.287c0.088,0.113,0.15,0.237,0.184,0.373
	c0.034,0.136,0.038,0.281,0.013,0.434C232.766,660.976,232.704,661.134,232.604,661.296 M231.159,660.41
	c-0.057,0.093-0.097,0.184-0.12,0.272c-0.023,0.089-0.029,0.173-0.02,0.253c0.01,0.08,0.037,0.154,0.081,0.221
	c0.044,0.066,0.107,0.125,0.187,0.174c0.078,0.048,0.157,0.077,0.238,0.086c0.08,0.01,0.159,0.001,0.235-0.027
	c0.076-0.028,0.148-0.072,0.216-0.132c0.069-0.061,0.131-0.138,0.188-0.231s0.098-0.183,0.121-0.273s0.03-0.175,0.02-0.254
	c-0.009-0.08-0.037-0.154-0.082-0.222c-0.044-0.068-0.106-0.126-0.184-0.174c-0.08-0.048-0.161-0.077-0.241-0.086
	c-0.08-0.006-0.159,0.002-0.234,0.031c-0.076,0.027-0.148,0.071-0.218,0.133C231.277,660.243,231.215,660.319,231.159,660.41"/>
<rect x="233.103" y="662.026" transform="matrix(0.7861 0.6181 -0.6181 0.7861 459.2921 -2.7143)" fill="#0039A6" width="0.929" height="0.432"/>
<polygon fill="#0039A6" points="236.588,663.218 236.295,663.529 235.809,663.069 234.577,664.374 234.214,664.03 235.444,662.727 
	234.958,662.266 235.25,661.956 "/>
<path fill="#0039A6" d="M236.389,666.364c0.043-0.068,0.087-0.139,0.131-0.213c0.044-0.075,0.088-0.148,0.131-0.222l-0.558-0.663
	c-0.08,0.03-0.16,0.061-0.241,0.092c-0.08,0.031-0.157,0.061-0.231,0.092l-0.335-0.397c0.237-0.09,0.457-0.172,0.661-0.245
	c0.203-0.073,0.397-0.14,0.581-0.2c0.184-0.061,0.359-0.117,0.527-0.167c0.168-0.051,0.335-0.097,0.501-0.138l0.305,0.362
	c-0.07,0.155-0.145,0.312-0.223,0.47c-0.078,0.157-0.162,0.321-0.253,0.492c-0.09,0.171-0.19,0.35-0.297,0.538
	c-0.107,0.189-0.225,0.392-0.354,0.61L236.389,666.364z M237.318,664.8c-0.031,0.012-0.076,0.027-0.132,0.047
	c-0.056,0.019-0.121,0.042-0.194,0.067c-0.073,0.027-0.154,0.055-0.243,0.085c-0.089,0.03-0.182,0.063-0.278,0.098l0.409,0.486
	c0.051-0.088,0.101-0.173,0.148-0.254c0.046-0.08,0.088-0.155,0.126-0.223c0.037-0.07,0.069-0.13,0.099-0.182
	C237.281,664.871,237.301,664.83,237.318,664.8"/>
<path fill="#0039A6" d="M238.525,667.096c0.176-0.009,0.349-0.021,0.52-0.036c0.17-0.016,0.339-0.037,0.505-0.065l0.303,0.46
	c-0.266,0.031-0.529,0.053-0.788,0.068c-0.259,0.014-0.523,0.024-0.792,0.028l-0.708,0.468l-0.276-0.417l0.704-0.465
	c0.108-0.246,0.221-0.485,0.338-0.721c0.116-0.234,0.241-0.467,0.374-0.701l0.319,0.484c-0.091,0.141-0.178,0.287-0.26,0.436
	C238.681,666.784,238.602,666.938,238.525,667.096"/>
<path fill="#0039A6" d="M240.664,668.931c0.147,0.297,0.207,0.55,0.182,0.761c-0.027,0.211-0.157,0.375-0.396,0.492
	c-0.239,0.118-0.451,0.123-0.636,0.015c-0.187-0.109-0.353-0.312-0.501-0.611l-0.07-0.14l-0.666,0.329l-0.221-0.448l1.961-0.97
	c0.068,0.089,0.132,0.186,0.194,0.291C240.572,668.754,240.623,668.849,240.664,668.931 M240.296,669.149
	c-0.016-0.033-0.032-0.064-0.05-0.095c-0.017-0.031-0.033-0.057-0.046-0.079l-0.575,0.283l0.07,0.142
	c0.077,0.154,0.155,0.261,0.237,0.318c0.081,0.058,0.178,0.059,0.293,0.002c0.056-0.027,0.096-0.06,0.123-0.098
	c0.026-0.038,0.042-0.081,0.045-0.129c0.004-0.049-0.003-0.102-0.022-0.159C240.354,669.275,240.329,669.213,240.296,669.149"/>
<path fill="#0039A6" d="M241.158,673.27c-0.181,0.061-0.348,0.087-0.502,0.08c-0.155-0.008-0.294-0.043-0.418-0.106
	c-0.123-0.061-0.229-0.149-0.319-0.263c-0.09-0.113-0.159-0.243-0.209-0.39c-0.049-0.145-0.07-0.288-0.067-0.431
	s0.036-0.278,0.096-0.404c0.061-0.126,0.15-0.239,0.268-0.34c0.118-0.101,0.267-0.181,0.448-0.241
	c0.18-0.061,0.348-0.086,0.504-0.075c0.155,0.01,0.296,0.048,0.422,0.114c0.125,0.064,0.232,0.152,0.321,0.263
	s0.157,0.237,0.204,0.376c0.048,0.144,0.07,0.288,0.067,0.431c-0.004,0.143-0.037,0.277-0.098,0.404
	c-0.061,0.126-0.151,0.241-0.27,0.34C241.487,673.129,241.338,673.21,241.158,673.27 M240.619,671.663
	c-0.104,0.035-0.192,0.079-0.267,0.132c-0.075,0.054-0.133,0.113-0.177,0.181c-0.044,0.068-0.071,0.141-0.08,0.221
	s0.001,0.164,0.031,0.254c0.029,0.087,0.072,0.159,0.128,0.219c0.055,0.058,0.121,0.102,0.197,0.13
	c0.075,0.027,0.159,0.04,0.251,0.037c0.091-0.003,0.188-0.022,0.292-0.056c0.104-0.034,0.192-0.079,0.268-0.132
	s0.135-0.114,0.178-0.181c0.044-0.069,0.072-0.143,0.08-0.223c0.009-0.081-0.002-0.165-0.03-0.252
	c-0.03-0.089-0.073-0.163-0.13-0.221c-0.056-0.057-0.123-0.099-0.198-0.127c-0.076-0.028-0.16-0.04-0.253-0.037
	C240.817,671.611,240.72,671.63,240.619,671.663"/>
<path fill="#0039A6" d="M241.501,674.761c0.055-0.062,0.111-0.127,0.169-0.196c0.059-0.071,0.114-0.141,0.17-0.21
	c0.055-0.07,0.108-0.137,0.159-0.201c0.052-0.065,0.098-0.122,0.138-0.173l0.317-0.063l0.313,1.601l-0.412,0.08l-0.186-0.949
	c-0.089,0.108-0.183,0.221-0.278,0.339c-0.097,0.116-0.192,0.225-0.283,0.325c-0.044-0.024-0.101-0.058-0.171-0.102
	c-0.071-0.044-0.146-0.09-0.224-0.138c-0.078-0.047-0.154-0.093-0.228-0.137s-0.136-0.08-0.187-0.108l0.202,1.036l-0.412,0.08
	l-0.322-1.648l0.339-0.066c0.139,0.077,0.287,0.163,0.441,0.257C241.201,674.581,241.353,674.672,241.501,674.761"/>
<path fill="#0039A6" d="M222.867,697.28c10.086-1.32,17.191-10.566,15.871-20.652c-1.32-10.086-10.567-17.192-20.652-15.871
	c-10.086,1.32-17.192,10.567-15.871,20.652C203.535,691.495,212.781,698.6,222.867,697.28"/>
<path fill="#0039A6" d="M197.487,671.073l-0.474,1.528l-0.824-0.256c-0.192,0.527-0.434,0.963-0.725,1.305
	c-0.289,0.344-0.606,0.604-0.951,0.78c-0.344,0.175-0.702,0.275-1.073,0.299c-0.371,0.025-0.734-0.018-1.089-0.128
	c-0.348-0.108-0.67-0.278-0.966-0.508c-0.295-0.232-0.539-0.518-0.729-0.861c-0.192-0.341-0.317-0.738-0.375-1.189
	c-0.058-0.451-0.025-0.951,0.101-1.499l-0.783-0.243l0.474-1.528l0.783,0.244c0.207-0.524,0.462-0.955,0.765-1.294
	s0.631-0.595,0.982-0.769s0.714-0.272,1.088-0.296c0.375-0.023,0.736,0.02,1.084,0.127c0.355,0.11,0.679,0.28,0.971,0.511
	c0.292,0.229,0.53,0.514,0.715,0.854c0.184,0.34,0.299,0.734,0.343,1.181c0.045,0.447-0.002,0.942-0.141,1.486L197.487,671.073z
	 M191.689,670.948c-0.057,0.277-0.069,0.53-0.038,0.76c0.032,0.23,0.1,0.433,0.203,0.608c0.104,0.175,0.237,0.324,0.401,0.444
	c0.165,0.121,0.351,0.214,0.559,0.278c0.207,0.064,0.414,0.092,0.618,0.081c0.205-0.009,0.399-0.058,0.58-0.144
	c0.181-0.087,0.346-0.216,0.494-0.387c0.149-0.171,0.274-0.387,0.377-0.649L191.689,670.948z M195.357,670.413
	c0.063-0.274,0.082-0.523,0.056-0.748s-0.089-0.424-0.189-0.599c-0.1-0.174-0.232-0.323-0.395-0.447
	c-0.163-0.124-0.349-0.219-0.557-0.283c-0.207-0.065-0.413-0.093-0.617-0.087c-0.204,0.007-0.399,0.053-0.583,0.139
	c-0.185,0.086-0.355,0.214-0.511,0.386s-0.289,0.388-0.398,0.648L195.357,670.413z"/>
<rect x="195.114" y="662.013" transform="matrix(0.4779 -0.8784 0.8784 0.4779 -482.4247 519.6467)" fill="#0039A6" width="1.64" height="7.29"/>
<path fill="#0039A6" d="M196.552,658.357c0.654,0.163,1.326,0.348,2.014,0.554c0.688,0.207,1.36,0.414,2.017,0.622
	c0.658,0.208,1.282,0.417,1.872,0.626c0.591,0.209,1.118,0.397,1.581,0.565l-1.147,1.401c-0.415-0.164-0.863-0.334-1.346-0.514
	c-0.482-0.179-0.965-0.355-1.448-0.527c-0.484-0.173-0.948-0.336-1.394-0.492c-0.445-0.155-0.835-0.281-1.169-0.378
	c0.157,0.317,0.355,0.678,0.594,1.084c0.239,0.407,0.492,0.829,0.759,1.266c0.267,0.438,0.534,0.875,0.805,1.313
	c0.27,0.438,0.525,0.843,0.765,1.215l-1.106,1.351c-0.26-0.413-0.549-0.89-0.866-1.43c-0.318-0.54-0.646-1.112-0.983-1.718
	c-0.338-0.604-0.673-1.223-1.006-1.858c-0.334-0.634-0.645-1.257-0.934-1.869L196.552,658.357z"/>
<path fill="#0039A6" d="M208.397,657.829c-0.21-0.164-0.428-0.33-0.655-0.498c-0.228-0.169-0.455-0.336-0.68-0.503l-2.354,1.601
	c0.074,0.272,0.148,0.543,0.221,0.817c0.074,0.272,0.148,0.536,0.225,0.789l-1.41,0.958c-0.214-0.804-0.408-1.55-0.579-2.239
	c-0.171-0.69-0.325-1.344-0.462-1.964c-0.135-0.619-0.258-1.212-0.367-1.779c-0.108-0.566-0.203-1.128-0.283-1.683l1.285-0.875
	c0.483,0.283,0.969,0.578,1.459,0.885c0.489,0.307,0.998,0.637,1.525,0.992c0.526,0.354,1.078,0.737,1.657,1.149
	c0.578,0.413,1.202,0.866,1.871,1.361L208.397,657.829z M203.596,654.275c0.029,0.108,0.065,0.258,0.11,0.448
	c0.044,0.191,0.096,0.409,0.156,0.657c0.06,0.249,0.125,0.523,0.194,0.823s0.145,0.612,0.227,0.937l1.724-1.172
	c-0.27-0.198-0.529-0.387-0.777-0.567c-0.249-0.179-0.479-0.341-0.692-0.485c-0.212-0.145-0.398-0.273-0.559-0.383
	C203.818,654.422,203.69,654.337,203.596,654.275"/>
<path fill="#0039A6" d="M214.804,651.398c0.204,0.589,0.295,1.138,0.274,1.646c-0.02,0.508-0.131,0.966-0.332,1.373
	c-0.2,0.406-0.485,0.759-0.853,1.057c-0.368,0.298-0.794,0.53-1.277,0.698c-0.471,0.162-0.942,0.239-1.412,0.231
	c-0.47-0.007-0.913-0.108-1.329-0.302c-0.416-0.194-0.791-0.484-1.124-0.869c-0.334-0.385-0.602-0.873-0.806-1.463
	c-0.203-0.59-0.29-1.141-0.259-1.653c0.03-0.51,0.15-0.973,0.359-1.387c0.21-0.413,0.495-0.768,0.857-1.064
	c0.361-0.296,0.771-0.522,1.228-0.681c0.471-0.163,0.942-0.24,1.411-0.232c0.471,0.009,0.914,0.111,1.331,0.309
	c0.417,0.197,0.792,0.488,1.125,0.874C214.331,650.319,214.6,650.808,214.804,651.398 M209.545,653.215
	c0.117,0.339,0.264,0.629,0.441,0.872c0.176,0.243,0.377,0.436,0.6,0.577c0.224,0.142,0.466,0.227,0.728,0.255
	s0.539-0.009,0.831-0.109c0.284-0.099,0.523-0.241,0.715-0.426s0.332-0.401,0.42-0.651c0.088-0.249,0.127-0.524,0.116-0.825
	c-0.012-0.3-0.075-0.62-0.193-0.958c-0.116-0.338-0.263-0.63-0.441-0.876c-0.179-0.247-0.379-0.44-0.603-0.582
	c-0.222-0.141-0.467-0.226-0.732-0.253c-0.266-0.027-0.541,0.009-0.826,0.107c-0.291,0.101-0.531,0.245-0.719,0.432
	c-0.187,0.188-0.325,0.406-0.413,0.656c-0.088,0.249-0.126,0.525-0.114,0.829C209.368,652.567,209.431,652.884,209.545,653.215
	 M210.055,652.338l2.217-0.767l0.426,1.234l-2.217,0.766L210.055,652.338z"/>
<path fill="#0039A6" d="M219.166,647.431c0.329,0.589,0.653,1.205,0.974,1.848c0.32,0.642,0.629,1.275,0.927,1.896
	c0.298,0.622,0.574,1.22,0.825,1.794c0.252,0.573,0.474,1.087,0.669,1.54l-1.806,0.121c-0.165-0.414-0.348-0.858-0.547-1.333
	c-0.199-0.473-0.401-0.946-0.606-1.417c-0.206-0.47-0.404-0.922-0.595-1.352c-0.193-0.431-0.367-0.801-0.525-1.112
	c-0.124,0.331-0.252,0.723-0.383,1.176c-0.133,0.452-0.268,0.925-0.405,1.419c-0.136,0.494-0.272,0.988-0.406,1.485
	s-0.255,0.96-0.363,1.391l-1.742,0.116c0.124-0.471,0.273-1.008,0.45-1.609s0.369-1.232,0.58-1.892
	c0.21-0.66,0.432-1.329,0.667-2.006c0.233-0.676,0.475-1.33,0.724-1.961L219.166,647.431z"/>
<polygon fill="#0039A6" points="228.814,648.506 230.414,648.87 228.795,655.978 227.196,655.614 227.882,652.599 225.195,651.986 
	224.508,655.002 222.909,654.638 224.527,647.53 226.126,647.895 225.508,650.612 228.195,651.224 "/>
<polygon fill="#0039A6" points="237.324,652.116 236.697,653.367 234.731,652.383 232.095,657.65 230.627,656.915 233.264,651.648 
	231.299,650.664 231.926,649.413 "/>
<rect x="236.139" y="652.789" transform="matrix(0.8075 0.5899 -0.5899 0.8075 432.8414 -13.406)" fill="#0039A6" width="1.641" height="7.289"/>
<path fill="#0039A6" d="M239.354,663.615c0.073-0.27,0.144-0.571,0.209-0.905c0.065-0.335,0.122-0.683,0.169-1.042
	c0.048-0.361,0.079-0.721,0.096-1.08c0.015-0.361,0.009-0.701-0.018-1.02l-2.263,2.101l-1.117-1.203l5.342-4.959l1.117,1.202
	l-2.008,1.864c0.612,0.008,1.244,0.007,1.894-0.004c0.65-0.01,1.254-0.021,1.809-0.034l1.325,1.427
	c-0.77,0.039-1.527,0.059-2.267,0.062c-0.741,0.003-1.503-0.011-2.285-0.041c0.04,0.758,0.001,1.563-0.12,2.414
	s-0.306,1.734-0.555,2.648L239.354,663.615z"/>
<path fill="#0039A6" d="M246.722,668.719c-0.547,0.3-1.073,0.482-1.577,0.548c-0.504,0.064-0.974,0.032-1.409-0.097
	c-0.435-0.129-0.831-0.35-1.186-0.663c-0.356-0.312-0.656-0.693-0.902-1.143c-0.241-0.436-0.396-0.886-0.467-1.351
	c-0.072-0.465-0.046-0.919,0.075-1.361c0.121-0.443,0.344-0.861,0.667-1.254c0.324-0.394,0.76-0.741,1.307-1.041
	c0.546-0.301,1.075-0.479,1.585-0.535c0.508-0.055,0.985-0.014,1.428,0.123c0.443,0.136,0.84,0.358,1.193,0.665
	c0.352,0.305,0.644,0.671,0.878,1.095c0.239,0.437,0.395,0.888,0.466,1.353s0.044,0.919-0.08,1.363
	c-0.124,0.444-0.347,0.863-0.672,1.257C247.704,668.071,247.269,668.418,246.722,668.719 M244.045,663.841
	c-0.314,0.172-0.576,0.366-0.785,0.581c-0.21,0.215-0.366,0.444-0.468,0.689c-0.102,0.244-0.145,0.498-0.129,0.76
	c0.016,0.263,0.099,0.53,0.247,0.8c0.146,0.265,0.325,0.476,0.54,0.634c0.215,0.158,0.452,0.26,0.713,0.305
	c0.261,0.044,0.538,0.036,0.832-0.026c0.294-0.061,0.599-0.178,0.912-0.349c0.314-0.173,0.576-0.368,0.789-0.584
	c0.213-0.217,0.37-0.448,0.473-0.692c0.102-0.243,0.145-0.499,0.126-0.764c-0.019-0.267-0.1-0.532-0.244-0.796
	c-0.15-0.271-0.331-0.483-0.548-0.636c-0.216-0.153-0.454-0.252-0.715-0.297s-0.54-0.036-0.837,0.027
	S244.352,663.672,244.045,663.841"/>
<path fill="#0039A6" d="M247.328,671.08c0.166-0.213,0.335-0.441,0.508-0.686c0.172-0.244,0.339-0.486,0.502-0.727
	c0.162-0.241,0.319-0.474,0.471-0.697c0.153-0.225,0.288-0.425,0.406-0.604l1.023-0.282l1.424,5.161l-1.328,0.366l-0.845-3.061
	c-0.265,0.379-0.542,0.771-0.829,1.177c-0.287,0.407-0.566,0.786-0.84,1.137c-0.149-0.067-0.346-0.164-0.589-0.29
	c-0.242-0.126-0.497-0.257-0.764-0.394c-0.268-0.137-0.529-0.269-0.782-0.396c-0.253-0.126-0.467-0.227-0.641-0.303l0.92,3.336
	l-1.328,0.367l-1.466-5.314l1.095-0.302c0.475,0.218,0.978,0.461,1.508,0.73C246.303,670.566,246.821,670.827,247.328,671.08"/>
<path fill="#0039A6" d="M255.967,679.178l0.857-1.629l-0.989-1.553l0.709-1.699l-1.123-1.46l0.556-1.755l-1.248-1.354l0.398-1.798
	l-1.365-1.236l0.234-1.826l-1.47-1.108l0.067-1.84l-1.564-0.971l-0.1-1.838l-1.644-0.826l-0.265-1.822l-1.712-0.675l-0.426-1.79
	l-1.766-0.52l-0.585-1.746l-1.805-0.359l-0.738-1.687l-1.83-0.197l-0.885-1.614l-1.841-0.033l-1.025-1.529l-1.837,0.132
	l-1.158-1.432l-1.818,0.296l-1.282-1.32l-1.783,0.458l-1.396-1.199l-1.735,0.618l-1.499-1.069l-1.671,0.772l-1.59-0.93l-1.595,0.919
	l-1.666-0.783l-1.508,1.057l-1.729-0.633l-1.408,1.186l-1.778-0.477l-1.297,1.307l-1.814-0.316l-1.172,1.418l-1.835-0.15
	l-1.041,1.518l-1.841,0.017l-0.899,1.605l-1.832,0.183l-0.751,1.681l-1.808,0.344l-0.598,1.742l-1.769,0.505l-0.441,1.789
	l-1.718,0.661l-0.278,1.82l-1.652,0.811l-0.115,1.838l-1.574,0.956l0.05,1.84l-1.481,1.094l0.213,1.828l-1.376,1.222l0.376,1.802
	l-1.261,1.34l0.539,1.761l-1.136,1.449l0.695,1.705l-0.999,1.546l0.846,1.635l-0.856,1.629l0.989,1.554l-0.709,1.699l1.122,1.459
	l-0.556,1.756l1.247,1.353l-0.396,1.798l1.364,1.237l-0.233,1.826l1.469,1.107l-0.067,1.84l1.565,0.971l0.098,1.839l1.646,0.825
	l0.263,1.822l1.713,0.675l0.426,1.791l1.767,0.518l0.584,1.746l1.805,0.36l0.738,1.686l1.831,0.198l0.884,1.614l1.841,0.033
	l1.026,1.529l1.836-0.131l1.158,1.43l1.817-0.296l1.282,1.321l1.784-0.458l1.396,1.199l1.734-0.617l1.499,1.068l1.672-0.772
	l1.589,0.929l1.596-0.919l1.666,0.783l1.508-1.056l1.728,0.634l1.409-1.187l1.778,0.478l1.297-1.307l1.813,0.315l1.174-1.419
	l1.835,0.151l1.04-1.519l1.841-0.015l0.899-1.607l1.832-0.181l0.751-1.681l1.809-0.346l0.596-1.741l1.771-0.506l0.439-1.787
	l1.718-0.662l0.28-1.819l1.651-0.813l0.115-1.837l1.573-0.956l-0.048-1.841l1.481-1.092l-0.214-1.83l1.377-1.221l-0.378-1.802
	l1.262-1.341l-0.538-1.761l1.135-1.449l-0.696-1.704l1-1.546L255.967,679.178z M224.864,712.531
	c-18.509,2.424-35.478-10.616-37.9-29.125c-2.424-18.509,10.616-35.478,29.125-37.9c18.508-2.423,35.477,10.616,37.9,29.125
	C256.412,693.139,243.373,710.108,224.864,712.531"/>
<path fill="#FFFFFF" d="M227.374,675.153h-13.795c-0.523,0-0.948,0.372-0.948,0.83v0.369c0,0.459,0.425,0.831,0.948,0.831h13.795
	c0.523,0,0.947-0.372,0.947-0.831v-0.369C228.321,675.525,227.897,675.153,227.374,675.153"/>
<path fill="#FFFFFF" d="M223.822,683.558h0.077c0.262,0,0.474-0.186,0.474-0.415c0-0.23-0.212-0.415-0.474-0.415h-6.91
	c-0.262,0-0.474,0.185-0.474,0.415c0,0.229,0.212,0.415,0.474,0.415h0.077c0.131,0.255,0.342,0.489,0.615,0.692h-0.416
	c-0.414,0-0.75,0.294-0.75,0.658c0,0.363,0.336,0.657,0.75,0.657h0.028l2.072,9.747c-0.168,0.073-0.284,0.225-0.284,0.401
	c0,0.248,0.23,0.449,0.513,0.449h0.044c0.035,0.342,0.417,0.612,0.885,0.612c0.467,0,0.85-0.27,0.885-0.612h0.004
	c0.283,0,0.513-0.201,0.513-0.449c0-0.199-0.148-0.368-0.352-0.428l2.024-9.72h0.026c0.415,0,0.75-0.294,0.75-0.657
	c0-0.364-0.335-0.658-0.75-0.658h-0.417C223.48,684.047,223.691,683.813,223.822,683.558 M220.477,695.263h-0.503l-2.06-9.698h2.563
	V695.263z"/>
<path fill="#FFFFFF" d="M217.247,680.661h-0.121c-0.447,0-0.81,0.317-0.81,0.709c0,0.392,0.363,0.709,0.81,0.709h6.635
	c0.446,0,0.809-0.317,0.809-0.709c0-0.392-0.363-0.709-0.809-0.709h-0.056c1.599-0.622,2.655-1.691,2.655-2.906h-11.768
	C214.592,678.97,215.648,680.039,217.247,680.661 M219.536,678.124c0,0.967,0.842,1.825,2.146,2.369h-3.621
	c-1.303-0.544-2.145-1.402-2.145-2.369H219.536z"/>
<path fill="#FFFFFF" d="M215.509,674.361c-0.149-0.278-0.233-0.587-0.233-0.912c0-0.383,0.131-0.769,0.403-1.179
	c0.026-0.04,0.069-0.104,0.122-0.184c0.062,0.463,0.297,1.013,0.981,1.406c0,0-0.001-0.008-0.003-0.019
	c-0.343-0.787-0.676-2.638,1.709-5.369c0,0-0.155,1.528,0.649,2.747c0.41,0.623,0.82,1.245,0.935,1.419
	c0.273,0.408,0.405,0.794,0.405,1.179c0,0.325-0.084,0.634-0.234,0.912h5.116c0,0,2.762-2.424-0.778-5.24
	c-3.541-2.817-0.979-4.193-0.979-4.193s-2.558,0.787-1.316,3.734c0.759,1.802,0.665,2.495,0.354,2.816c0,0-0.483,0.51-1.405,0
	c-0.693-0.541-1.462-1.872-0.122-5.043c2.049-4.846-1.391-4.585-1.391-4.585s2.416,0.327,0.659,3.734c0,0-0.586-0.295-0.183-1.376
	c0,0-8.162,6.55-4.831,10.153H215.509z"/>
<path fill="#FFFFFF" d="M209.997,687.392c0.199-0.079,0.398-0.18,0.6-0.304c0.2-0.123,0.378-0.269,0.532-0.437h0.437v3.567h-0.622
	v-2.733c-0.093,0.072-0.21,0.142-0.35,0.211c-0.141,0.068-0.277,0.125-0.407,0.17L209.997,687.392z"/>
<path fill="#FFFFFF" d="M214.295,688.746c-0.082,0.038-0.174,0.067-0.272,0.088c-0.1,0.02-0.196,0.031-0.289,0.031
	c-0.213,0-0.394-0.029-0.543-0.085c-0.15-0.056-0.271-0.136-0.365-0.237c-0.095-0.101-0.165-0.219-0.208-0.353
	c-0.045-0.133-0.068-0.278-0.068-0.432c0-0.134,0.023-0.27,0.068-0.409c0.043-0.139,0.114-0.267,0.21-0.383
	c0.096-0.117,0.218-0.212,0.366-0.286c0.147-0.074,0.322-0.111,0.525-0.111c0.418,0,0.734,0.135,0.949,0.404
	c0.215,0.269,0.322,0.65,0.322,1.14c0,0.694-0.178,1.218-0.536,1.575c-0.356,0.357-0.904,0.537-1.641,0.54l-0.026-0.519
	c0.206,0,0.392-0.018,0.558-0.052c0.167-0.034,0.313-0.089,0.438-0.164c0.126-0.076,0.231-0.175,0.317-0.296
	C214.185,689.075,214.25,688.925,214.295,688.746 M213.806,688.371c0.1,0,0.197-0.01,0.294-0.029
	c0.096-0.019,0.178-0.047,0.247-0.084c0.003-0.038,0.005-0.071,0.005-0.099v-0.071c0-0.138-0.01-0.268-0.028-0.389
	c-0.019-0.122-0.052-0.228-0.098-0.319c-0.047-0.091-0.11-0.163-0.191-0.216c-0.081-0.054-0.181-0.08-0.301-0.08
	c-0.1,0-0.185,0.02-0.255,0.061c-0.07,0.041-0.127,0.095-0.172,0.161c-0.045,0.064-0.077,0.134-0.098,0.211
	c-0.02,0.075-0.031,0.148-0.031,0.22c0,0.21,0.051,0.367,0.152,0.474C213.431,688.317,213.59,688.371,213.806,688.371"/>
<path fill="#FFFFFF" d="M227.796,688.746c-0.083,0.038-0.174,0.067-0.273,0.088c-0.1,0.02-0.195,0.031-0.288,0.031
	c-0.213,0-0.394-0.029-0.543-0.085c-0.15-0.056-0.272-0.136-0.365-0.237c-0.095-0.101-0.165-0.219-0.209-0.353
	c-0.044-0.133-0.067-0.278-0.067-0.432c0-0.134,0.023-0.27,0.067-0.409s0.115-0.267,0.21-0.383c0.097-0.117,0.219-0.212,0.367-0.286
	c0.147-0.074,0.322-0.111,0.524-0.111c0.419,0,0.735,0.135,0.95,0.404c0.214,0.269,0.322,0.65,0.322,1.14
	c0,0.694-0.179,1.218-0.536,1.575s-0.904,0.537-1.641,0.54l-0.027-0.519c0.207,0,0.393-0.018,0.559-0.052s0.313-0.089,0.438-0.164
	c0.125-0.076,0.23-0.175,0.316-0.296C227.686,689.075,227.751,688.925,227.796,688.746 M227.307,688.371
	c0.1,0,0.197-0.01,0.293-0.029c0.097-0.019,0.179-0.047,0.247-0.084c0.004-0.038,0.006-0.071,0.006-0.099v-0.071
	c0-0.138-0.01-0.268-0.028-0.389c-0.02-0.122-0.052-0.228-0.099-0.319c-0.046-0.091-0.109-0.163-0.19-0.216
	c-0.081-0.054-0.181-0.08-0.301-0.08c-0.1,0-0.185,0.02-0.255,0.061c-0.07,0.041-0.128,0.095-0.172,0.161
	c-0.045,0.064-0.077,0.134-0.098,0.211c-0.021,0.075-0.031,0.148-0.031,0.22c0,0.21,0.051,0.367,0.151,0.474
	C226.932,688.317,227.09,688.371,227.307,688.371"/>
<path fill="#FFFFFF" d="M229.087,687.392c0.199-0.079,0.399-0.18,0.601-0.304c0.2-0.123,0.378-0.269,0.532-0.437h0.437v3.567h-0.623
	v-2.733c-0.093,0.072-0.209,0.142-0.349,0.211c-0.141,0.068-0.277,0.125-0.407,0.17L229.087,687.392z"/>
<path fill="#0039A6" d="M290.79,698.586h-8.217v-4.433c-2.883-0.143-5.387-0.666-7.512-1.567c-2.127-0.9-3.884-2.063-5.271-3.486
	c-1.388-1.423-2.424-3.028-3.108-4.811c-0.685-1.784-1.027-3.63-1.027-5.54c0-1.874,0.342-3.712,1.027-5.514
	c0.684-1.801,1.72-3.432,3.108-4.892c1.387-1.459,3.144-2.675,5.271-3.649c2.125-0.972,4.629-1.567,7.512-1.784v-4.216h8.217v4.216
	c2.882,0.217,5.387,0.812,7.513,1.784c2.126,0.974,3.883,2.19,5.27,3.649c1.387,1.46,2.423,3.091,3.109,4.892
	c0.683,1.802,1.026,3.64,1.026,5.514c0,1.91-0.343,3.756-1.026,5.54c-0.686,1.783-1.722,3.388-3.109,4.811s-3.144,2.586-5.27,3.486
	c-2.126,0.901-4.631,1.424-7.513,1.567V698.586z M282.573,669.938c-1.441,0.144-2.702,0.468-3.783,0.972
	c-1.081,0.506-1.974,1.145-2.676,1.919c-0.703,0.776-1.225,1.658-1.567,2.649c-0.343,0.992-0.514,2.045-0.514,3.162
	c0,1.118,0.18,2.172,0.54,3.163c0.361,0.991,0.893,1.864,1.595,2.621c0.703,0.757,1.585,1.37,2.648,1.838
	c1.064,0.469,2.316,0.757,3.757,0.865L282.573,669.938L282.573,669.938z M290.79,687.127c1.44-0.108,2.693-0.396,3.756-0.865
	c1.063-0.468,1.946-1.081,2.649-1.838c0.702-0.757,1.234-1.63,1.594-2.621c0.36-0.991,0.541-2.045,0.541-3.163
	c0-1.117-0.172-2.17-0.514-3.162c-0.342-0.991-0.865-1.873-1.567-2.649c-0.703-0.774-1.595-1.413-2.676-1.919
	c-1.081-0.504-2.343-0.828-3.783-0.972V687.127z"/>
<rect x="311.817" y="661.127" fill="#0039A6" width="8.432" height="37.459"/>
<path fill="#0039A6" d="M345.437,661.127c1.484,3.132,2.938,6.402,4.358,9.809c1.419,3.407,2.787,6.754,4.103,10.045
	c1.315,3.291,2.519,6.45,3.613,9.479c1.094,3.028,2.06,5.737,2.9,8.126h-9.303c-0.704-2.179-1.485-4.52-2.344-7.021
	c-0.857-2.5-1.731-4.992-2.622-7.475c-0.89-2.484-1.752-4.863-2.586-7.139c-0.834-2.274-1.603-4.233-2.307-5.879
	c-0.747,1.657-1.538,3.62-2.372,5.895c-0.835,2.275-1.687,4.655-2.559,7.139c-0.871,2.484-1.737,4.976-2.596,7.475
	c-0.857,2.502-1.638,4.836-2.338,7.005h-8.973c0.796-2.377,1.75-5.077,2.861-8.099c1.111-3.021,2.319-6.188,3.625-9.501
	c1.305-3.312,2.674-6.664,4.107-10.053c1.434-3.391,2.897-6.66,4.388-9.806L345.437,661.127L345.437,661.127z"/>
<path fill="#0039A6" d="M388.296,698.586c-0.417-1.301-0.865-2.638-1.345-4.01c-0.479-1.372-0.958-2.738-1.432-4.098h-14.631
	c-0.473,1.366-0.948,2.735-1.422,4.109c-0.476,1.373-0.918,2.707-1.328,3.999h-8.756c1.409-4.036,2.746-7.766,4.012-11.19
	c1.264-3.423,2.501-6.648,3.712-9.675c1.212-3.027,2.405-5.9,3.58-8.622c1.174-2.72,2.394-5.378,3.66-7.972h7.993
	c1.23,2.594,2.443,5.252,3.638,7.972c1.195,2.722,2.399,5.595,3.612,8.622c1.213,3.027,2.452,6.252,3.72,9.675
	c1.266,3.424,2.606,7.154,4.018,11.19H388.296z M378.165,669.613c-0.188,0.544-0.464,1.284-0.826,2.22
	c-0.362,0.937-0.775,2.019-1.237,3.246c-0.463,1.227-0.981,2.579-1.552,4.055c-0.572,1.474-1.154,3.022-1.743,4.641h10.712
	c-0.575-1.624-1.129-3.177-1.666-4.656c-0.538-1.48-1.048-2.833-1.532-4.062c-0.484-1.227-0.908-2.308-1.272-3.244
	C378.684,670.879,378.389,670.145,378.165,669.613"/>
<path fill="#0039A6" d="M432.408,679.829c0,3.208-0.478,6.027-1.432,8.46c-0.955,2.431-2.263,4.468-3.92,6.108
	c-1.657,1.64-3.631,2.874-5.918,3.702c-2.289,0.829-4.749,1.243-7.379,1.243c-2.559,0-4.973-0.414-7.242-1.243
	c-2.271-0.828-4.253-2.062-5.947-3.702s-3.027-3.677-4-6.108c-0.972-2.433-1.459-5.252-1.459-8.46c0-3.207,0.504-6.028,1.513-8.459
	c1.009-2.433,2.369-4.477,4.081-6.135c1.712-1.657,3.694-2.901,5.946-3.729c2.252-0.83,4.622-1.245,7.108-1.245
	c2.559,0,4.973,0.415,7.243,1.245c2.271,0.828,4.252,2.072,5.945,3.729c1.695,1.658,3.028,3.702,4.001,6.135
	C431.921,673.801,432.408,676.622,432.408,679.829 M403.814,679.829c0,1.838,0.224,3.496,0.675,4.973
	c0.451,1.478,1.099,2.748,1.946,3.811c0.846,1.063,1.883,1.884,3.108,2.46s2.63,0.864,4.216,0.864c1.55,0,2.946-0.288,4.189-0.864
	c1.244-0.576,2.287-1.397,3.135-2.46c0.847-1.063,1.495-2.333,1.946-3.811c0.45-1.477,0.675-3.135,0.675-4.973
	c0-1.837-0.225-3.504-0.675-5c-0.451-1.494-1.099-2.775-1.946-3.838c-0.848-1.062-1.891-1.882-3.135-2.459
	c-1.243-0.576-2.639-0.865-4.189-0.865c-1.586,0-2.991,0.297-4.216,0.892c-1.225,0.595-2.262,1.424-3.108,2.487
	c-0.847,1.063-1.495,2.342-1.946,3.837C404.038,676.379,403.814,678.028,403.814,679.829 M407.76,676.423h12.053v6.703H407.76
	V676.423z"/>
<path fill="#0039A6" d="M453.272,661.127c1.484,3.132,2.937,6.402,4.357,9.809c1.42,3.407,2.788,6.754,4.104,10.045
	c1.314,3.291,2.518,6.45,3.612,9.479c1.095,3.028,2.061,5.737,2.9,8.126h-9.302c-0.704-2.179-1.486-4.52-2.344-7.021
	c-0.857-2.5-1.732-4.992-2.622-7.475c-0.891-2.484-1.752-4.863-2.586-7.139c-0.835-2.274-1.604-4.233-2.307-5.879
	c-0.748,1.657-1.538,3.62-2.373,5.895c-0.834,2.275-1.687,4.655-2.558,7.139c-0.872,2.484-1.737,4.976-2.596,7.475
	c-0.858,2.502-1.638,4.836-2.339,7.005h-8.972c0.796-2.377,1.749-5.077,2.86-8.099c1.111-3.021,2.319-6.188,3.625-9.501
	c1.306-3.312,2.674-6.664,4.108-10.053c1.434-3.391,2.896-6.66,4.388-9.806L453.272,661.127L453.272,661.127z"/>
<polygon fill="#0039A6" points="492.946,661.127 501.379,661.127 501.379,698.586 492.946,698.586 492.946,682.694 478.784,682.694 
	478.784,698.586 470.351,698.586 470.351,661.127 478.784,661.127 478.784,675.451 492.946,675.451 "/>
<polygon fill="#0039A6" points="536.46,661.127 536.46,668.316 525.162,668.316 525.162,698.586 516.731,698.586 516.731,668.316 
	505.433,668.316 505.433,661.127 "/>
<rect x="540.513" y="661.127" fill="#0039A6" width="8.433" height="37.459"/>
<path fill="#0039A6" d="M576.974,698.586c-0.759-1.219-1.654-2.536-2.685-3.952c-1.03-1.415-2.139-2.843-3.329-4.28
	c-1.19-1.438-2.435-2.818-3.736-4.137c-1.301-1.319-2.601-2.485-3.9-3.496v15.865h-8.432v-37.459h8.432v14.078
	c2.168-2.276,4.371-4.658,6.607-7.144c2.236-2.486,4.303-4.797,6.196-6.934h10.007c-2.549,3.036-5.113,5.955-7.693,8.757
	c-2.579,2.802-5.294,5.621-8.145,8.459c2.997,2.5,5.888,5.464,8.672,8.895s5.461,7.214,8.031,11.348H576.974z"/>
<path fill="#0039A6" d="M620.512,679.829c0,3.208-0.478,6.027-1.432,8.46c-0.956,2.432-2.263,4.469-3.919,6.108
	c-1.658,1.64-3.631,2.874-5.92,3.703c-2.288,0.829-4.748,1.243-7.378,1.243c-2.559,0-4.972-0.414-7.243-1.243
	c-2.27-0.829-4.252-2.063-5.945-3.703c-1.695-1.639-3.028-3.676-4-6.108c-0.973-2.433-1.46-5.252-1.46-8.46
	c0-3.207,0.504-6.027,1.514-8.459c1.008-2.433,2.369-4.477,4.081-6.135c1.711-1.657,3.693-2.901,5.946-3.729
	c2.251-0.829,4.621-1.244,7.107-1.244c2.559,0,4.974,0.415,7.243,1.244c2.271,0.828,4.252,2.072,5.946,3.729
	c1.694,1.658,3.027,3.702,4,6.135C620.025,673.802,620.512,676.622,620.512,679.829 M591.917,679.829
	c0,1.838,0.226,3.496,0.676,4.974c0.45,1.477,1.099,2.748,1.946,3.81c0.847,1.064,1.883,1.884,3.108,2.46
	c1.225,0.576,2.63,0.864,4.216,0.864c1.55,0,2.947-0.288,4.189-0.864c1.244-0.576,2.289-1.396,3.136-2.46
	c0.846-1.062,1.495-2.333,1.946-3.81c0.45-1.478,0.676-3.136,0.676-4.974c0-1.837-0.226-3.504-0.676-5
	c-0.451-1.494-1.1-2.774-1.946-3.838c-0.847-1.061-1.892-1.882-3.136-2.459c-1.242-0.576-2.639-0.865-4.189-0.865
	c-1.586,0-2.991,0.298-4.216,0.892c-1.225,0.595-2.261,1.424-3.108,2.487s-1.496,2.343-1.946,3.838S591.917,678.028,591.917,679.829
	"/>
<path fill="#0039A6" d="M631.971,679.64c-0.829-1.115-1.729-2.266-2.702-3.452c-0.973-1.187-1.946-2.347-2.919-3.48
	c-0.974-1.132-1.91-2.229-2.811-3.291c-0.901-1.06-1.713-2.004-2.432-2.831v-5.46h27.512v7.081h-16.324
	c1.514,1.833,3.081,3.74,4.703,5.716c1.621,1.979,3.117,3.884,4.487,5.717c-0.54,0.649-1.289,1.49-2.243,2.519
	c-0.956,1.03-1.956,2.113-3,3.251c-1.046,1.138-2.054,2.248-3.027,3.332c-0.973,1.084-1.766,2.003-2.379,2.762h17.783v7.081h-28.323
	v-5.838c1.73-2.057,3.621-4.215,5.675-6.472C628.026,684.018,630.026,681.807,631.971,679.64"/>
</svg>
